P2
192 32
255
0
0
0
0
0
0
0
0
0
0
0
255
255
0
0
0
0
255
255
0
0
255
255
0
0
0
255
255
0
255
255
0
0
0
255
255
255
255
0
0
0
0
0
0
0
0
0
0
0
0
0
0
0
0
0
0
0
0
0
255
255
0
0
0
0
0
0
255
255
0
0
0
0
0
0
255
255
0
0
0
0
0
0
0
0
0
0
0
0
0
0
0
0
0
0
0
0
0
0
0
0
0
0
0
0
0
0
0
0
0
0
0
0
0
0
0
0
0
0
0
0
0
0
0
0
255
255
0
0
0
255
255
255
255
0
0
0
0
0
255
255
0
0
0
0
0
255
255
255
255
0
0
0
0
255
255
255
255
0
0
0
255
255
0
0
255
255
0
0
255
255
255
255
255
255
0
0
0
255
255
255
255
255
0
0
255
255
255
255
255
255
0
0
0
0
0
0
0
0
0
0
0
0
255
255
0
0
0
0
255
255
0
0
255
255
0
0
0
255
255
0
255
255
0
0
255
255
0
255
0
255
0
0
255
255
0
0
255
255
0
0
0
0
255
255
0
0
0
0
0
0
255
255
0
0
0
0
0
255
255
0
0
0
0
0
0
0
0
255
255
0
0
0
0
0
255
255
0
0
0
0
0
0
255
255
0
0
0
0
0
0
0
0
0
0
0
0
0
0
0
0
0
0
0
0
0
0
0
0
0
0
0
0
0
0
0
0
255
255
0
0
255
255
0
0
255
255
0
0
0
255
255
255
0
0
0
0
255
255
0
0
255
255
0
0
255
255
0
0
255
255
0
0
255
255
0
0
255
255
0
0
255
255
0
0
0
0
0
0
255
255
0
0
0
0
0
0
0
0
0
0
255
255
0
0
0
0
0
0
0
0
0
0
0
0
255
255
0
0
0
0
255
255
0
0
255
255
0
0
255
255
255
255
255
255
255
0
255
255
0
255
0
0
0
0
255
255
0
255
255
255
0
0
0
255
0
0
255
0
0
0
0
0
255
255
0
0
0
0
255
255
0
0
0
0
0
0
0
0
0
0
255
255
0
0
255
255
255
255
255
255
0
0
0
0
255
255
0
0
0
0
0
0
0
0
0
0
0
0
0
0
0
0
0
0
0
0
0
0
0
0
0
0
0
0
0
0
0
255
255
0
0
0
255
255
0
0
255
255
0
0
0
0
255
255
0
0
0
0
0
0
0
0
255
255
0
0
0
0
0
0
255
255
0
0
255
255
0
0
255
255
0
0
255
255
0
0
0
0
0
0
255
255
0
0
0
0
0
0
0
0
0
0
255
255
0
0
0
0
0
0
0
0
0
0
0
0
255
255
0
0
0
0
0
0
0
0
0
0
0
0
0
255
255
0
255
255
0
0
0
255
255
255
255
0
0
0
0
0
255
255
255
0
0
0
0
255
0
0
255
0
0
0
0
0
0
0
0
0
0
0
255
255
0
0
0
0
0
0
0
0
0
0
255
255
0
0
0
255
255
255
255
0
0
0
255
255
255
255
255
255
0
0
0
0
0
0
0
0
0
0
255
255
255
255
255
255
0
0
0
0
0
0
0
0
0
0
0
0
255
255
0
0
0
0
255
255
0
0
255
255
0
0
0
0
255
255
0
0
0
0
0
0
0
0
255
255
0
0
0
0
0
255
255
0
0
0
255
255
255
255
255
255
0
0
255
255
255
255
255
0
0
0
255
255
255
255
255
0
0
0
0
0
0
0
255
255
0
0
0
0
0
0
0
0
0
0
0
0
255
255
0
0
0
0
0
0
0
0
0
0
0
0
255
255
0
255
255
0
0
0
0
0
255
0
255
255
0
0
0
255
255
255
0
0
0
0
0
255
255
255
0
0
0
0
0
0
0
0
0
0
0
0
255
255
0
0
0
0
0
0
0
0
0
0
255
255
0
0
0
255
255
255
255
0
0
0
255
255
255
255
255
255
0
0
0
0
0
0
0
0
0
0
255
255
255
255
255
255
0
0
0
0
0
0
0
0
0
0
0
0
255
255
0
0
0
0
255
255
0
0
255
255
0
0
0
0
255
255
0
0
0
0
0
0
255
255
0
0
0
0
0
0
0
0
255
255
0
0
0
0
0
0
255
255
0
0
0
0
0
0
255
255
0
0
255
255
0
0
255
255
0
0
0
0
0
255
255
0
0
0
0
0
0
0
0
0
0
0
0
0
0
0
0
0
0
0
0
0
0
0
0
0
0
255
255
255
255
255
255
255
0
0
0
0
255
0
255
255
0
0
255
255
255
0
255
255
0
0
255
255
0
0
255
0
255
0
0
0
0
0
0
0
0
0
255
255
0
0
0
0
0
0
0
0
0
0
255
255
0
0
255
255
0
0
255
255
0
0
0
0
255
255
0
0
0
0
0
0
255
255
0
0
0
0
0
0
0
0
0
0
0
0
0
0
0
0
0
0
0
0
0
255
255
0
0
0
0
0
255
255
0
0
255
255
0
0
0
0
255
255
0
0
0
0
0
255
0
0
0
0
0
0
255
0
0
0
255
255
0
0
0
0
0
0
255
255
0
0
0
0
0
0
255
255
0
0
255
255
0
0
255
255
0
0
0
0
0
255
255
0
0
0
0
0
0
0
0
0
0
0
0
0
255
255
0
0
0
0
0
0
0
0
0
0
0
0
255
255
0
255
255
0
0
0
255
255
255
255
255
255
0
0
255
255
0
0
255
255
0
0
255
255
0
0
0
255
0
0
0
0
0
0
0
0
0
0
0
255
255
0
0
0
0
0
0
0
0
255
255
0
0
0
255
255
0
0
255
255
0
0
0
0
255
255
0
0
0
0
0
255
255
255
0
0
0
0
0
0
0
0
0
0
0
0
0
0
255
255
0
0
0
0
255
255
0
0
0
0
0
0
255
255
255
255
255
255
0
0
0
255
255
255
255
0
0
0
255
255
255
255
255
255
0
0
255
255
255
255
255
255
0
0
0
0
0
0
255
255
0
0
255
255
255
255
255
255
0
0
255
255
255
255
255
255
0
0
0
0
255
255
0
0
0
0
0
0
0
0
0
0
0
0
0
0
255
255
0
0
0
0
0
0
0
0
0
0
0
0
255
255
0
255
255
0
0
0
0
255
255
255
255
0
0
0
0
0
0
0
0
0
0
0
0
255
255
255
255
0
255
0
0
0
0
0
0
0
0
0
0
0
255
255
0
0
0
0
0
0
255
255
0
0
0
0
0
0
0
0
0
0
0
0
0
0
0
0
0
0
0
0
0
255
255
0
0
0
0
0
0
0
0
0
0
0
0
0
0
0
255
255
0
0
0
0
255
255
0
0
0
0
0
0
0
255
255
255
255
0
0
0
0
255
255
255
255
0
0
0
255
255
255
255
255
255
0
0
0
255
255
255
255
0
0
0
0
0
0
0
255
255
0
0
255
255
255
255
255
0
0
0
0
255
255
255
255
0
0
0
0
0
255
255
0
0
0
0
0
255
255
255
255
0
0
0
0
255
255
255
255
0
0
0
0
0
0
0
0
0
0
0
0
0
0
0
0
0
0
0
0
0
0
0
0
0
0
0
0
0
0
0
0
0
0
0
0
0
0
0
0
0
0
0
0
0
255
255
255
0
0
0
0
0
255
255
255
0
0
0
0
255
255
255
255
0
0
0
255
255
255
255
255
0
0
0
0
255
255
255
255
0
0
0
255
255
255
255
255
0
0
0
255
255
255
255
255
255
0
0
255
255
255
255
255
255
0
0
0
255
255
255
255
0
0
0
255
255
0
0
255
255
0
0
0
255
255
255
255
0
0
0
0
0
255
255
255
255
0
0
255
255
0
0
0
255
0
0
255
255
0
0
0
0
0
0
255
255
0
0
255
255
0
0
255
255
0
0
255
255
0
0
255
255
255
255
255
255
0
0
255
255
0
0
255
255
0
0
255
255
0
0
255
255
0
0
0
0
255
255
0
0
0
0
0
0
255
255
0
0
0
0
0
0
0
0
255
255
0
0
0
0
0
0
0
0
0
0
255
255
0
0
0
0
0
0
0
255
0
0
255
255
0
0
0
255
0
0
0
255
0
0
255
255
255
255
255
255
0
0
255
255
0
0
255
255
0
0
255
255
0
0
0
255
0
0
255
255
0
0
255
255
0
0
255
255
0
0
0
0
0
0
255
255
0
0
0
0
0
0
255
255
0
0
0
255
0
0
255
255
0
0
255
255
0
0
0
0
255
255
0
0
0
0
0
0
0
255
255
0
0
0
255
255
0
0
255
0
0
0
255
255
0
0
0
0
0
0
255
255
255
255
255
255
0
0
255
255
255
0
255
255
0
0
255
255
0
0
255
255
0
0
255
255
0
0
255
255
0
0
255
255
0
0
255
255
0
0
0
0
255
255
0
0
0
0
0
0
255
255
0
0
0
0
0
0
0
255
255
255
0
0
255
255
255
255
255
255
0
0
255
255
255
0
0
0
0
0
0
0
0
255
255
255
0
0
255
0
0
255
0
255
0
0
255
255
0
0
255
255
0
0
255
255
0
0
255
255
0
0
255
255
0
0
0
0
0
0
255
255
0
0
255
255
0
0
255
255
0
0
0
0
0
0
255
255
0
0
0
0
0
0
255
255
0
0
0
0
0
0
255
255
0
0
255
255
0
0
0
0
255
255
0
0
0
0
0
0
0
255
255
0
0
0
255
255
0
0
255
0
0
0
255
255
0
0
0
0
0
0
255
255
255
255
255
255
0
0
255
255
255
0
255
255
0
0
255
255
0
0
255
255
0
0
0
255
255
255
255
0
0
0
0
255
255
255
255
255
0
0
0
0
0
0
0
0
0
0
0
0
0
0
0
0
0
0
0
0
255
255
0
0
0
0
255
255
255
255
255
255
0
0
0
0
255
255
0
0
0
0
0
0
255
255
255
0
0
0
255
0
255
0
255
255
0
0
255
255
255
255
255
255
0
0
255
255
255
255
255
0
0
0
255
255
0
0
0
0
0
0
255
255
0
0
255
255
0
0
255
255
255
255
0
0
0
0
255
255
255
255
0
0
0
0
255
255
0
255
255
255
0
0
255
255
255
255
255
255
0
0
0
0
255
255
0
0
0
0
0
0
0
255
255
0
0
0
255
255
255
255
0
0
0
0
255
255
0
0
0
0
0
0
255
255
0
0
255
255
0
0
255
255
255
0
255
255
0
0
255
255
0
0
255
255
0
0
255
255
0
0
255
255
0
0
0
0
0
0
255
255
0
0
0
0
0
0
0
0
0
0
0
0
0
0
0
0
0
0
0
255
255
0
0
0
0
0
0
0
0
0
0
0
0
0
0
0
0
255
255
0
0
0
0
0
255
255
0
0
0
0
255
0
255
0
0
255
0
0
255
255
0
0
255
255
0
0
255
255
0
0
255
255
0
0
255
255
0
0
0
0
0
0
255
255
0
0
255
255
0
0
255
255
0
0
0
0
0
0
255
255
0
0
0
0
0
0
255
255
0
0
255
255
0
0
255
255
0
0
255
255
0
0
0
0
255
255
0
0
0
0
0
0
0
255
255
0
0
0
255
255
0
255
255
0
0
0
255
255
0
0
0
0
0
0
255
255
0
0
255
255
0
0
255
255
0
255
255
255
0
0
255
255
0
0
255
255
0
0
255
255
0
0
255
255
0
0
0
0
0
0
255
255
0
0
0
0
255
255
0
0
0
0
0
0
255
255
0
0
0
0
0
0
255
255
0
0
0
0
255
255
255
255
255
255
0
0
0
0
255
255
0
0
0
0
0
0
0
0
0
0
0
0
255
0
255
255
255
0
0
0
255
255
0
0
255
255
0
0
255
255
0
0
255
255
0
0
255
255
0
0
0
255
0
0
255
255
0
0
255
255
0
0
255
255
0
0
0
0
0
0
255
255
0
0
0
0
0
0
255
255
0
0
255
255
0
0
255
255
0
0
255
255
0
0
0
0
255
255
0
0
0
0
255
255
0
255
255
0
0
0
255
255
0
255
255
0
0
0
255
255
0
0
0
0
0
0
255
255
0
0
255
255
0
0
255
255
0
255
255
255
0
0
255
255
0
0
255
255
0
0
255
255
255
255
255
255
0
0
0
0
0
0
255
255
0
0
0
0
255
255
0
0
0
0
0
255
255
255
0
0
0
0
0
0
0
255
255
255
0
0
255
255
255
255
255
255
0
0
255
255
255
0
0
0
0
0
0
0
255
255
0
0
0
0
255
0
0
0
0
255
0
0
255
255
0
0
255
255
0
0
255
255
255
255
255
255
0
0
255
255
255
255
255
255
0
0
255
255
255
255
255
255
0
0
255
255
255
255
255
255
0
0
255
255
0
0
0
0
0
0
255
255
255
255
255
255
0
0
255
255
0
0
255
255
0
0
0
255
255
255
255
0
0
0
255
255
255
255
255
0
0
0
255
255
0
0
255
255
0
0
255
255
255
255
255
255
0
0
255
255
0
0
255
255
0
0
255
255
0
255
255
255
0
0
255
255
255
255
255
255
0
0
0
255
255
255
255
0
0
0
0
0
0
0
255
255
0
0
0
0
0
0
0
0
0
0
0
255
255
0
0
0
0
0
0
0
0
0
255
255
0
0
0
0
0
0
0
0
0
0
255
255
0
0
0
0
0
0
0
0
255
255
0
0
0
0
0
255
255
255
255
0
0
0
255
255
0
0
255
255
0
0
255
255
255
255
255
0
0
0
0
255
255
255
255
0
0
0
255
255
255
255
255
0
0
0
255
255
255
255
255
255
0
0
255
255
0
0
0
0
0
0
0
255
255
255
255
0
0
0
255
255
0
0
255
255
0
0
0
255
255
255
255
0
0
0
255
255
255
255
255
0
0
0
255
255
0
0
255
255
0
0
255
255
255
255
255
255
0
0
255
255
0
0
255
255
0
0
255
255
0
0
255
255
0
0
255
255
255
255
255
255
0
0
255
255
255
255
255
0
0
0
0
255
255
255
255
0
0
0
255
255
255
255
255
0
0
0
0
255
255
255
255
0
0
0
255
255
255
255
255
255
0
0
255
255
0
0
255
255
0
0
255
255
0
0
255
255
0
0
255
255
0
0
255
255
0
0
255
255
0
0
255
255
0
0
255
255
0
0
255
255
0
0
255
255
255
255
255
255
0
0
0
255
255
255
255
0
0
0
255
255
0
0
0
0
0
0
0
255
255
255
255
0
0
0
0
0
255
255
0
0
0
0
0
0
0
0
0
0
0
0
0
255
255
0
0
0
0
0
0
0
0
0
0
0
0
0
0
0
0
0
0
0
0
0
0
0
0
0
0
0
0
0
0
0
0
0
0
0
0
0
0
0
0
0
0
0
0
0
0
0
0
0
0
0
0
0
0
0
0
0
0
0
0
0
255
255
0
0
255
255
0
0
255
255
0
0
255
255
0
0
255
255
0
0
255
255
0
0
255
255
0
0
0
255
0
0
0
0
255
255
0
0
0
0
255
255
0
0
255
255
0
0
255
255
0
0
255
255
0
0
255
255
0
0
255
255
0
0
255
255
0
0
255
255
0
0
255
255
0
0
255
255
0
0
0
0
0
0
255
255
0
0
0
255
255
255
255
0
0
0
255
255
0
0
0
0
0
0
0
255
255
255
255
0
0
0
0
255
255
255
255
0
0
0
0
0
0
0
0
0
0
0
0
0
255
255
0
0
0
0
0
0
0
0
0
0
0
0
255
255
0
0
0
0
0
0
0
0
0
0
0
0
0
0
0
0
0
0
255
255
0
0
0
0
0
0
0
0
0
0
0
255
255
255
0
0
0
0
0
0
0
0
0
0
0
0
255
255
0
0
255
255
0
0
255
255
0
0
255
255
0
0
255
255
0
0
255
255
0
0
255
255
0
0
0
0
0
0
0
0
255
255
0
0
0
0
255
255
0
0
255
255
0
0
255
255
0
0
255
255
0
0
255
255
0
0
255
255
0
0
0
255
255
255
255
0
0
0
0
255
255
255
255
0
0
0
0
0
0
255
255
0
0
0
0
255
255
0
0
0
0
0
0
255
255
0
0
0
0
0
0
0
0
255
255
0
0
0
255
255
0
0
255
255
0
0
0
0
0
0
0
0
0
0
0
0
0
255
255
0
0
0
0
255
255
255
255
0
0
0
255
255
0
0
0
0
0
0
0
255
255
255
255
0
0
0
0
0
0
0
255
255
0
0
0
255
255
255
255
0
0
0
255
255
0
0
255
0
0
0
0
255
255
255
255
0
0
0
255
255
255
255
255
0
0
0
255
255
0
0
255
255
0
0
255
255
255
255
255
255
0
0
0
255
255
255
255
0
0
0
0
0
255
255
0
0
0
0
255
255
0
0
255
255
0
0
255
255
0
0
255
255
0
0
255
255
0
0
255
255
0
0
0
0
255
255
0
0
0
0
0
255
255
255
255
0
0
0
0
0
255
255
0
0
0
0
0
255
255
0
0
0
0
0
0
0
255
255
0
0
0
0
0
0
0
255
255
0
0
0
0
0
0
0
0
0
0
0
0
0
0
0
0
0
0
0
0
0
0
0
0
0
0
0
0
0
0
0
255
255
0
0
255
255
255
255
255
0
0
0
255
255
0
0
0
255
0
0
0
255
255
255
255
255
0
0
255
255
0
0
255
255
0
0
255
255
0
0
0
0
0
0
255
255
0
0
255
255
0
0
255
255
0
0
0
0
0
0
255
255
0
255
255
255
0
0
255
255
0
255
255
0
0
0
0
0
0
0
255
255
0
0
0
0
255
255
0
0
0
0
255
255
0
0
255
255
0
0
0
255
255
255
255
0
0
0
255
255
0
0
255
255
0
0
0
255
255
255
255
0
0
0
0
0
255
255
0
0
0
0
0
255
255
0
0
0
0
0
0
255
255
0
0
0
0
0
0
0
255
255
0
0
0
0
0
0
0
255
255
0
0
0
0
0
0
0
0
0
0
0
0
0
0
0
0
0
0
0
0
0
0
0
0
0
0
0
0
255
255
255
255
255
0
0
255
255
0
0
255
255
0
0
255
255
0
0
0
0
0
0
255
255
0
0
255
255
0
0
255
255
255
255
255
255
0
0
255
255
255
255
0
0
0
0
255
255
0
0
255
255
0
0
255
255
0
0
0
0
0
0
255
255
0
255
255
255
0
0
255
255
0
0
255
255
0
0
0
0
0
0
255
255
0
0
0
0
255
255
0
0
0
0
255
255
0
0
255
255
0
0
0
255
255
255
255
0
0
0
255
255
0
0
255
255
0
0
0
255
255
255
255
0
0
0
0
0
255
255
0
0
0
0
255
255
0
0
0
0
0
0
0
255
255
0
0
0
0
0
0
0
0
255
255
0
0
0
0
0
0
255
255
0
0
0
0
0
0
0
0
0
0
0
0
0
0
0
0
0
0
0
0
0
0
0
0
0
0
0
255
255
0
0
255
255
0
0
255
255
0
0
255
255
0
0
255
255
0
0
0
255
0
0
255
255
0
0
255
255
0
0
255
255
0
0
0
0
0
0
255
255
0
0
0
0
0
0
0
255
255
255
255
255
0
0
255
255
0
0
0
0
0
0
255
255
255
255
255
0
0
0
255
255
0
0
255
255
0
0
255
255
255
255
255
255
0
0
0
0
255
255
0
0
0
0
255
255
255
255
255
255
0
0
0
0
255
255
0
0
0
0
255
255
255
255
255
255
0
0
255
255
0
0
255
255
0
0
0
0
255
255
0
0
0
0
255
255
255
255
255
255
0
0
0
255
255
255
255
0
0
0
0
0
0
0
255
255
0
0
0
255
255
255
255
0
0
0
0
0
0
0
0
0
0
0
0
0
0
0
0
0
0
0
0
0
0
0
0
0
0
0
255
255
255
255
255
255
0
0
255
255
255
255
255
255
0
0
255
255
255
255
255
255
0
0
255
255
255
255
255
255
0
0
255
255
255
255
255
255
0
0
255
255
0
0
0
0
0
0
0
0
0
0
255
255
0
0
255
255
0
0
0
0
0
0
0
255
255
255
0
255
0
0
255
255
0
0
255
255
0
0
0
255
255
255
255
0
0
0
0
0
255
255
0
0
0
0
0
255
255
255
255
0
0
0
0
0
255
255
0
0
0
0
255
255
0
0
255
255
0
0
255
255
0
0
255
255
0
0
0
0
255
255
0
0
0
0
255
255
255
255
255
255
0
0
0
255
255
255
255
0
0
0
0
0
0
0
255
255
0
0
0
255
255
255
255
0
0
0
0
0
0
0
0
0
0
255
255
255
255
255
255
255
255
0
0
0
0
0
0
0
0
0
0
255
255
255
255
255
0
0
255
255
255
255
255
0
0
0
0
255
255
255
255
0
0
0
0
255
255
255
255
255
0
0
0
255
255
255
255
0
0
0
255
255
0
0
0
0
0
0
0
255
255
255
255
0
0
0
0
0
0
0
0
0
0
0
0
0
0
0
0
0
0
0
0
0
0
0
0
0
0
0
0
0
0
0
0
0
0
0
0
0
0
0
0
0
0
0
0
0
0
0
0
0
0
0
0
0
0
0
0
0
0
0
0
0
0
0
0
0
0
0
0
0
0
0
0
0
0
0
0
0
0
0
0
0
0
0
0
0
0
0
0
0
0
0
0
0
0
0
0
0
0
0
0
0
0
0
0
0
0
0
0
0
0
0
0
0
0
0
0
0
0
0
0
0
0
0
0
0
0
0
0
0
0
0
0
0
0
0
0
0
0
0
0
0
0
0
0
0
0
0
0
0
0
0
0
0
0
0
0
0
0
255
255
0
0
0
0
0
255
255
0
0
0
0
0
255
255
0
0
0
0
0
0
0
0
0
0
0
0
0
0
0
0
0
0
0
0
0
255
255
0
0
0
0
0
0
0
0
255
255
0
0
0
0
0
0
0
255
255
0
0
0
0
0
0
0
0
0
0
0
0
255
255
255
0
0
0
0
0
0
0
0
0
0
0
0
0
0
0
0
0
0
0
0
0
0
0
0
0
0
0
0
0
0
0
0
0
0
0
0
0
0
0
0
0
0
0
0
0
0
0
0
0
0
0
0
0
0
0
0
0
0
0
0
0
255
255
0
0
0
0
0
0
0
0
0
0
0
0
0
0
0
0
0
0
0
0
0
0
0
0
0
0
0
0
0
0
0
0
0
0
0
0
0
0
0
0
0
0
0
0
0
0
0
0
0
0
0
0
0
0
0
255
255
255
0
0
0
0
0
255
255
0
0
0
0
0
255
255
255
0
0
0
0
0
0
0
0
0
0
0
0
0
0
0
0
0
0
0
0
255
255
0
0
0
0
0
0
0
0
0
0
0
0
0
0
0
0
0
0
0
0
0
0
255
255
0
0
255
0
0
0
0
0
255
255
0
0
0
0
255
255
0
0
255
255
0
0
255
255
255
255
255
0
0
0
0
255
255
255
255
0
0
0
255
255
255
255
255
0
0
0
0
255
255
255
255
255
0
0
255
255
255
255
255
0
0
0
0
255
255
255
255
0
0
0
255
255
255
255
255
0
0
0
255
255
0
0
255
255
0
0
255
255
0
0
255
255
0
0
255
255
0
0
255
255
0
0
255
255
0
0
255
255
0
0
255
255
0
0
255
255
0
0
255
255
255
255
255
255
0
0
0
0
255
255
0
0
0
0
0
0
255
255
0
0
0
0
0
0
255
255
0
0
0
0
0
255
255
0
0
0
0
0
0
0
0
0
0
0
0
0
255
255
255
255
255
0
0
0
0
0
255
255
0
0
0
0
0
0
0
255
255
0
0
0
255
255
0
255
0
0
0
0
0
0
255
255
0
0
0
0
255
255
255
255
255
255
0
0
255
255
0
0
255
255
0
0
255
255
0
0
255
255
0
0
255
255
0
0
255
255
0
0
255
255
0
0
255
255
0
0
255
255
0
0
255
255
0
0
255
255
0
0
0
0
0
0
0
255
255
0
0
0
0
0
255
255
0
0
255
255
0
0
255
255
0
0
255
255
0
0
255
255
0
0
255
255
0
0
255
255
0
0
255
255
0
0
255
255
0
0
255
255
0
0
0
0
0
0
255
255
0
0
0
255
255
0
0
0
0
0
0
0
255
255
0
0
0
0
0
0
0
255
255
0
0
0
255
255
255
255
0
255
0
0
0
0
0
0
0
0
0
0
255
255
0
0
255
255
0
0
0
0
255
255
0
0
0
0
0
0
0
255
255
0
0
0
255
255
255
255
0
0
0
0
0
0
255
255
0
0
0
0
255
255
0
0
255
255
0
0
255
255
0
0
255
255
0
0
255
255
0
0
255
255
0
0
255
255
0
0
255
255
0
0
255
255
0
0
255
255
0
0
255
255
0
0
0
0
0
0
0
255
255
255
255
0
0
0
0
255
255
0
0
0
0
0
255
255
0
0
255
255
0
0
0
255
255
255
255
0
0
0
255
255
0
0
255
255
0
0
0
255
255
255
255
0
0
0
0
255
255
255
255
0
0
0
0
0
255
255
0
0
0
0
0
0
255
0
0
0
0
0
0
0
255
255
0
0
0
0
0
0
0
255
0
0
0
0
255
0
255
255
255
255
0
0
0
0
0
0
0
0
0
0
255
255
0
0
255
255
0
0
0
0
255
255
0
0
0
0
255
0
0
255
255
0
0
0
255
255
0
255
255
0
0
0
0
0
255
255
0
0
0
0
255
255
0
0
255
255
0
0
255
255
0
0
255
255
0
0
255
255
0
0
255
255
0
0
255
255
255
255
255
0
0
0
0
255
255
255
255
255
0
0
255
255
0
0
0
0
0
0
0
0
0
0
255
255
0
0
0
255
255
0
255
255
0
0
255
255
0
0
255
255
0
0
0
255
255
255
255
0
0
0
255
255
0
0
255
255
0
0
0
255
255
255
255
0
0
0
0
0
255
255
0
0
0
0
255
255
0
0
0
0
0
0
0
0
255
255
0
0
0
0
0
0
255
255
0
0
0
0
0
0
255
255
0
0
0
0
0
0
0
255
255
0
0
0
0
0
0
0
0
0
0
0
255
255
0
0
255
255
0
0
0
255
255
255
255
0
0
0
255
255
255
255
255
0
0
0
255
255
0
0
255
255
0
0
0
255
255
255
255
0
0
0
255
255
0
0
255
255
0
0
255
255
0
0
255
255
0
0
255
255
255
255
255
255
0
0
255
255
0
0
0
0
0
0
0
0
0
0
255
255
0
0
255
255
0
0
0
0
0
0
255
255
255
255
255
255
0
0
0
255
255
255
255
255
0
0
255
255
255
255
255
255
0
0
0
0
255
255
0
0
0
0
255
255
255
255
255
255
0
0
255
255
0
0
255
255
0
0
0
0
255
255
0
0
0
0
255
255
255
255
255
255
0
0
0
0
255
255
255
0
0
0
0
0
255
255
0
0
0
0
0
255
255
255
0
0
0
0
0
0
0
0
0
0
0
0
0
0
0
0
0
0
0
0
255
255
0
0
255
255
0
0
0
255
255
255
255
0
0
0
255
255
255
255
255
0
0
0
255
255
0
0
255
255
0
0
0
255
255
255
255
0
0
0
255
255
0
0
255
255
0
0
255
255
0
0
255
255
0
0
0
255
255
255
255
0
0
0
255
255
0
0
0
0
0
0
0
0
0
0
255
255
0
0
255
255
0
0
0
0
0
0
0
255
255
255
255
0
0
0
0
0
255
255
255
0
0
0
0
255
255
255
255
0
0
0
0
0
255
255
0
0
0
0
255
255
0
0
255
255
0
0
255
255
0
0
255
255
0
0
0
0
255
255
0
0
0
0
255
255
255
255
255
255
0
0
0
0
0
255
255
0
0
0
0
0
255
255
0
0
0
0
0
255
255
0
0
0
0
0
0
0
0
0
0
0
0
0
0
0
0
0
0
0
0
