P2
128 128
255
0
0
0
0
0
0
0
0
0
0
0
0
0
0
0
0
0
4
0
0
0
0
4
0
0
4
0
4
4
0
4
4
4
4
0
4
4
4
4
4
4
4
4
4
4
4
4
4
4
4
4
12
4
4
4
4
12
4
4
12
4
12
12
4
12
12
12
12
4
12
12
12
12
12
12
12
12
12
12
12
12
12
12
12
12
12
12
12
12
12
12
12
12
14
12
12
12
12
14
12
12
14
12
14
14
12
14
13
13
13
13
13
13
13
13
13
13
13
13
13
13
13
13
13
13
13
13
13
0
0
0
0
0
0
0
0
0
0
0
0
0
0
4
0
0
0
0
0
4
0
0
0
4
0
4
0
4
4
4
0
4
4
4
4
4
0
4
4
4
4
4
4
4
4
4
4
4
4
4
4
4
4
12
4
4
4
12
4
12
4
12
12
12
4
12
12
12
12
12
12
12
12
12
12
12
12
12
12
12
12
12
12
12
12
12
12
12
12
12
12
12
12
12
12
14
12
12
12
14
12
14
12
14
14
13
13
13
13
13
13
13
13
13
13
13
13
13
13
13
13
13
13
13
13
13
13
0
0
0
0
0
0
0
0
0
0
0
0
0
0
0
0
0
4
0
0
0
0
4
0
0
4
0
4
4
0
4
4
4
4
0
4
4
4
4
4
4
4
4
4
4
4
4
4
4
4
4
12
4
4
4
4
12
4
4
12
4
12
12
4
12
12
12
12
4
12
12
12
12
12
12
12
12
12
12
12
12
12
12
12
12
12
12
12
12
12
12
12
12
14
12
12
12
12
14
12
12
14
12
14
14
12
13
13
13
13
13
13
13
13
13
13
13
13
13
13
13
13
13
13
13
13
13
13
0
0
0
0
0
0
0
0
0
0
0
0
0
0
0
0
0
0
0
0
4
0
0
0
4
0
4
0
4
4
4
0
4
4
4
4
4
4
4
4
4
4
4
4
4
4
4
4
12
4
4
4
4
4
12
4
4
4
12
4
12
4
12
12
12
4
12
12
12
12
12
4
12
12
12
12
12
12
12
12
12
12
12
12
12
12
12
12
12
12
14
12
12
12
12
12
14
12
12
12
14
12
14
12
14
14
13
13
13
13
13
13
13
13
13
13
13
13
13
13
13
13
13
13
13
13
13
13
0
0
0
0
0
0
0
0
0
0
0
0
0
0
0
0
0
4
0
0
0
0
4
0
0
4
0
4
4
0
4
4
4
4
0
4
4
4
4
4
4
4
4
4
4
4
4
4
4
4
4
12
4
4
4
4
12
4
4
12
4
12
12
4
12
12
12
12
4
12
12
12
12
12
12
12
12
12
12
12
12
12
12
12
12
12
12
12
12
12
12
12
12
14
12
12
12
12
14
12
12
14
12
14
14
12
13
13
13
13
13
13
13
13
13
13
13
13
13
13
13
13
13
13
13
13
13
13
0
0
0
0
0
0
0
0
0
0
0
0
0
0
4
0
0
0
0
0
4
0
0
0
4
0
4
0
4
4
4
0
4
4
4
4
4
0
4
4
4
4
4
4
4
4
4
4
4
4
4
4
4
4
12
4
4
4
12
4
12
4
12
12
12
4
12
12
12
12
12
12
12
12
12
12
12
12
12
12
12
12
12
12
12
12
12
12
12
12
12
12
12
12
12
12
14
12
12
12
14
12
14
12
14
14
13
13
13
13
13
13
13
13
13
13
13
13
13
13
13
13
13
13
13
13
13
13
0
0
0
0
0
0
0
0
0
0
0
0
0
0
0
0
0
4
0
0
0
0
4
0
0
4
0
4
4
0
4
4
4
4
0
4
4
4
4
4
4
4
4
4
4
4
4
4
4
4
4
12
4
4
4
4
12
4
4
12
4
12
12
4
12
12
12
12
4
12
12
12
12
12
12
12
12
12
12
12
12
12
12
12
12
12
12
12
12
12
12
12
12
14
12
12
12
12
14
12
12
14
12
14
14
12
13
13
13
13
13
13
13
13
13
13
13
13
13
13
13
13
13
13
13
13
13
13
0
0
0
0
0
0
0
0
0
0
0
0
0
0
0
0
0
0
0
0
4
0
0
0
4
0
4
0
4
4
4
0
4
4
4
4
4
4
4
4
4
4
4
4
4
4
4
4
12
4
4
4
4
4
12
4
4
4
12
4
12
4
12
12
12
4
12
12
12
12
12
4
12
12
12
12
12
12
12
12
12
12
12
12
12
12
12
12
12
12
14
12
12
12
12
12
14
12
12
12
14
12
14
12
14
13
13
13
13
13
13
13
13
13
13
13
13
13
13
13
13
13
13
13
13
13
13
13
0
0
0
0
0
0
0
0
0
0
0
0
0
0
0
0
0
4
0
0
0
0
4
0
0
4
0
4
4
0
4
4
4
4
0
4
4
4
4
4
4
4
4
4
4
4
4
4
4
4
4
12
4
4
4
4
12
4
4
12
4
12
12
4
12
12
12
12
4
12
12
12
12
12
12
12
12
12
12
12
12
12
12
12
12
12
12
12
12
12
12
12
12
14
12
12
12
12
14
12
12
14
12
14
14
13
13
13
13
13
13
13
13
13
13
13
13
13
13
13
13
13
13
13
13
13
13
13
0
0
0
0
0
0
0
0
0
0
0
0
0
0
4
0
0
0
0
0
4
0
0
0
4
0
4
0
4
4
4
0
4
4
4
4
4
0
4
4
4
4
4
4
4
4
4
4
4
4
4
4
4
4
12
4
4
4
12
0
0
4
12
12
12
4
12
12
12
12
12
12
12
12
12
12
12
12
12
12
12
12
12
12
12
12
12
12
12
12
12
12
12
12
12
12
14
12
12
12
14
12
14
12
14
13
13
13
13
13
13
13
13
13
13
13
13
13
13
13
13
13
13
13
13
13
13
13
0
0
0
0
0
0
0
0
0
0
0
0
0
0
0
0
0
4
0
0
0
0
4
0
0
4
0
4
4
0
4
4
4
4
0
4
4
4
4
4
4
4
4
4
4
4
4
4
4
4
4
12
4
4
4
4
12
4
4
0
0
12
12
4
12
12
12
12
4
12
12
12
12
12
12
12
12
12
12
12
12
12
12
12
12
12
12
12
12
12
12
12
12
14
12
12
12
12
14
12
12
14
12
14
13
13
13
13
13
13
13
13
13
13
13
13
13
13
13
13
13
13
13
13
13
13
13
13
0
0
0
0
0
0
0
0
0
0
0
0
0
0
0
0
0
0
0
0
4
0
0
0
4
0
4
0
4
4
4
0
4
4
4
4
4
4
4
4
4
4
4
4
4
4
4
4
12
4
4
4
4
4
12
4
4
4
0
0
0
0
12
12
12
4
12
12
12
12
12
4
12
12
12
12
12
12
12
12
12
12
12
12
12
12
12
12
12
12
14
12
12
12
12
12
14
12
12
12
14
12
14
12
13
13
13
13
13
13
13
13
13
13
13
13
13
13
13
13
13
13
13
13
13
13
13
13
0
0
0
0
0
0
0
0
0
0
0
0
0
0
0
0
0
4
0
0
0
0
4
0
0
4
0
4
4
0
4
4
4
4
0
4
4
4
4
4
4
4
4
4
4
4
4
4
4
4
4
12
4
4
4
4
12
4
4
0
0
0
0
4
12
12
12
12
4
12
12
12
12
12
12
12
12
12
12
12
12
12
12
12
12
12
12
12
12
12
12
12
12
14
12
12
12
12
14
12
12
14
12
14
13
13
13
13
13
13
13
13
13
13
13
13
13
13
13
13
13
13
13
13
13
13
13
13
0
0
0
0
0
0
0
0
0
0
0
0
0
0
4
0
0
0
0
0
4
0
0
0
4
0
4
0
4
4
4
0
4
4
4
4
4
0
4
4
4
4
4
4
4
4
4
4
4
4
0
0
0
0
12
4
4
4
12
4
0
0
0
12
12
0
0
12
12
12
12
12
12
12
12
12
12
12
12
12
12
12
12
12
12
12
12
12
12
12
12
12
12
12
12
12
14
12
12
12
14
12
14
12
13
13
13
13
5
13
13
5
5
5
5
5
5
5
5
5
13
13
13
13
13
13
13
13
0
0
0
0
0
0
0
0
0
0
0
0
0
0
0
0
0
4
0
0
0
0
4
0
0
4
0
4
4
0
4
4
4
4
0
4
4
4
4
4
4
4
4
4
4
4
4
4
4
4
0
0
0
0
0
0
0
0
0
0
0
0
0
0
12
0
0
0
4
12
12
12
12
12
12
12
12
12
12
12
12
12
12
12
12
12
12
12
12
12
12
12
12
14
12
12
12
12
14
12
12
14
12
14
13
13
13
13
13
13
13
13
13
13
13
13
13
13
13
5
5
5
5
5
13
13
13
13
0
0
0
0
0
0
0
0
0
0
0
0
0
0
0
0
0
0
0
0
4
0
0
0
4
0
4
0
4
4
4
0
4
4
4
4
4
0
4
4
4
4
4
4
4
4
4
4
12
4
4
4
0
0
0
0
0
0
0
0
0
0
0
0
0
0
0
0
0
12
12
4
12
12
12
12
12
12
12
12
12
12
12
12
12
12
12
12
12
12
14
12
12
12
12
12
14
12
12
12
14
12
14
12
13
5
13
13
13
13
13
13
13
13
13
13
13
13
13
13
13
13
5
5
5
5
13
5
0
0
0
0
0
0
0
0
0
0
0
0
0
0
0
0
0
4
0
0
0
0
4
0
0
4
0
4
4
0
4
4
4
4
4
4
4
4
4
4
4
4
0
0
0
0
0
0
0
0
0
0
0
0
0
0
0
0
0
0
0
0
0
0
0
0
0
0
0
0
0
12
12
12
12
12
12
12
12
12
12
12
12
12
12
12
12
12
12
12
12
12
12
14
12
12
12
12
14
12
12
14
12
13
13
13
13
13
13
13
13
13
13
13
13
13
13
13
13
13
13
13
13
13
5
5
5
13
0
0
0
0
0
0
0
0
0
0
0
0
0
0
4
0
0
0
0
0
4
0
0
0
4
0
4
0
4
4
4
4
4
0
0
0
0
0
0
0
0
0
0
0
0
0
0
0
0
0
0
0
0
0
0
0
0
0
0
0
0
0
0
0
0
0
0
0
0
0
0
0
12
12
12
12
12
12
12
12
12
0
0
0
0
0
0
0
0
0
12
12
12
12
12
12
14
12
12
12
14
12
14
13
13
13
13
13
13
13
13
13
13
13
13
13
13
13
13
13
13
13
13
13
13
5
5
5
0
0
0
0
0
0
0
0
0
0
0
0
0
0
0
0
0
4
0
0
0
0
4
0
0
4
0
4
4
0
4
0
0
0
0
0
0
0
0
0
0
0
0
0
0
0
0
0
0
0
0
0
0
0
0
0
0
0
0
0
0
0
0
0
0
0
0
0
0
0
0
0
0
0
0
0
0
0
0
0
0
0
0
0
0
0
0
0
0
0
0
12
12
14
12
12
12
12
14
12
12
14
13
13
13
13
13
13
13
13
13
13
13
13
13
13
13
13
13
13
13
13
13
13
13
5
5
5
0
0
0
0
0
0
0
0
0
0
0
0
0
0
0
0
0
0
0
0
4
0
0
0
4
0
4
0
4
4
0
0
0
0
0
0
0
0
0
0
0
0
0
0
0
0
0
0
0
0
0
0
0
0
0
0
0
0
0
0
0
0
0
0
0
0
0
0
0
0
0
0
0
0
0
0
0
0
0
0
0
0
0
0
0
0
0
0
0
0
0
0
12
12
12
12
14
12
12
12
14
12
13
13
13
13
13
13
13
13
13
13
13
13
13
13
13
13
13
13
13
13
13
13
13
13
13
5
0
0
0
0
0
0
0
0
0
0
0
0
0
0
0
0
0
4
0
0
0
0
4
0
0
4
0
4
4
0
0
0
0
0
0
0
0
0
0
0
0
0
0
0
0
0
0
0
0
0
0
0
0
0
0
0
0
0
0
0
0
0
0
0
0
0
0
0
0
0
0
0
0
0
0
0
0
0
0
0
0
0
0
0
0
0
0
0
0
0
0
0
0
14
12
12
12
12
14
12
12
13
13
13
13
13
13
13
13
13
13
13
13
13
13
13
13
13
13
13
13
13
13
13
13
13
5
13
0
0
0
0
0
0
0
0
0
0
0
0
0
0
4
0
0
0
0
0
4
0
0
0
4
4
4
0
0
0
0
0
0
0
0
0
0
0
0
0
0
0
0
0
0
0
0
0
0
0
0
0
0
0
0
0
0
0
0
0
0
0
0
0
0
0
0
0
0
0
0
0
0
0
0
0
0
0
0
0
0
0
0
0
0
0
0
0
0
0
0
0
0
0
12
12
14
12
12
12
13
5
13
13
13
13
13
13
13
13
13
13
13
13
13
13
13
13
13
13
13
13
13
13
13
13
13
5
0
0
0
0
0
0
0
0
0
0
0
0
0
0
0
0
0
4
0
0
0
0
4
4
4
0
0
0
0
0
0
0
0
0
0
0
0
0
0
0
0
0
0
0
0
0
0
0
0
0
0
0
0
0
0
0
0
0
0
0
0
0
0
0
0
0
0
0
0
0
0
0
0
0
0
0
0
0
0
0
0
0
0
0
0
0
0
0
0
0
0
0
0
0
12
12
12
12
14
13
5
13
13
5
13
5
13
13
4
4
4
4
4
4
4
4
4
4
13
13
13
13
13
13
13
13
13
13
0
0
0
0
0
0
0
0
0
0
0
0
0
0
0
0
0
0
0
0
4
4
4
0
0
0
0
0
0
0
0
0
0
0
0
0
0
0
0
0
0
0
0
0
0
0
0
0
0
0
0
0
0
0
0
0
0
0
0
0
0
0
0
0
0
0
0
0
0
0
0
0
0
0
0
0
0
0
0
0
0
0
0
0
0
0
0
0
0
0
0
0
0
0
0
0
14
12
5
5
5
5
5
13
13
13
4
4
4
12
4
12
4
12
4
4
4
4
4
4
4
4
4
13
13
13
13
13
0
0
0
0
0
0
0
0
0
0
0
0
0
0
0
0
0
4
0
4
4
0
0
0
0
0
0
0
0
0
0
0
0
0
0
0
0
0
0
0
0
0
0
0
0
0
0
0
0
0
0
0
0
0
0
0
0
0
0
0
0
0
0
0
0
0
0
0
0
0
0
0
0
0
0
0
0
0
0
0
0
0
0
0
0
0
0
0
0
0
0
0
0
0
0
0
0
5
5
5
5
5
13
5
4
4
4
12
4
4
12
4
12
4
12
4
4
12
4
12
4
4
4
4
4
4
4
13
0
0
0
0
0
0
0
0
0
0
0
0
0
0
4
0
0
4
4
0
0
0
0
0
0
0
0
0
0
0
0
0
0
0
0
0
0
0
0
0
0
0
0
0
0
0
0
0
0
0
0
0
0
0
0
0
0
0
0
0
0
0
0
0
0
0
0
0
0
0
0
0
0
0
0
0
0
0
0
0
0
0
0
0
0
0
0
0
0
0
0
0
0
0
0
0
0
0
0
5
5
5
4
4
12
4
12
4
12
12
12
12
12
12
12
12
12
4
12
4
12
4
4
4
4
4
4
13
0
0
0
0
0
0
0
0
0
0
0
0
0
0
0
0
4
0
0
0
0
0
0
0
0
0
0
0
0
0
0
0
0
0
0
0
0
0
0
0
0
0
0
0
0
0
0
0
0
0
0
0
0
0
0
0
0
0
0
0
0
0
0
0
0
0
0
4
4
4
12
12
12
12
0
0
0
0
0
0
0
0
0
0
0
0
0
0
0
0
0
0
0
0
0
0
0
0
0
0
5
4
12
4
4
12
12
12
12
4
12
4
12
4
12
4
12
12
12
12
4
12
4
4
4
4
4
4
0
0
0
0
0
0
0
0
0
0
0
0
0
0
0
4
0
0
0
0
0
0
0
0
0
0
0
0
0
0
0
0
0
0
0
0
0
0
0
0
0
0
0
0
0
0
0
0
0
0
0
0
0
0
0
0
0
0
0
0
0
0
0
0
4
4
4
12
12
12
12
12
12
4
12
12
4
12
4
12
4
12
12
0
0
0
0
0
0
0
0
0
0
0
0
0
0
0
0
0
0
4
4
12
12
12
12
4
12
12
12
12
12
12
12
12
12
4
12
4
12
4
12
4
4
4
4
4
0
0
0
0
0
0
0
0
0
0
0
0
0
0
4
0
0
0
0
0
0
0
0
0
0
0
0
0
0
0
0
0
0
0
0
0
0
0
0
0
0
0
0
0
0
0
0
0
0
0
0
0
0
0
0
0
0
0
0
0
0
0
0
4
12
12
12
12
12
12
12
4
4
12
4
4
12
4
12
4
12
4
4
12
12
0
0
0
0
0
0
0
0
0
0
0
0
0
0
0
0
0
12
12
12
4
12
12
12
12
12
12
12
12
12
12
12
12
12
12
12
12
4
12
4
4
4
4
0
0
0
0
0
0
0
0
0
0
0
0
0
4
0
0
0
0
0
0
0
0
0
0
0
0
0
0
0
0
0
0
0
0
0
0
0
0
0
0
0
0
0
0
0
0
0
0
0
0
0
0
0
0
0
0
0
0
0
0
0
4
12
12
12
12
12
12
12
12
12
12
4
4
4
4
4
4
12
4
4
4
4
12
0
12
0
0
0
0
0
0
0
0
0
0
0
0
0
0
0
0
0
0
0
0
12
12
12
12
12
12
12
12
12
12
12
12
12
4
12
4
12
4
12
4
4
4
0
0
0
0
0
0
0
0
0
0
0
0
4
0
0
0
0
0
0
0
0
0
0
0
0
0
0
0
0
0
0
0
0
0
0
0
0
0
0
0
0
0
0
0
0
0
0
0
0
0
0
0
0
0
0
0
0
0
0
0
4
12
12
12
12
12
12
12
12
12
12
12
12
4
4
4
4
4
4
4
4
4
12
12
12
0
12
0
12
0
0
0
0
0
0
0
0
0
0
0
0
0
0
0
0
0
0
0
0
12
12
12
12
12
12
12
12
12
12
12
12
12
12
12
4
12
4
4
0
0
0
0
0
0
0
0
0
0
0
4
0
0
0
0
0
0
0
0
0
0
0
0
0
0
0
0
0
0
0
0
0
0
0
0
0
0
0
0
0
0
0
0
0
0
0
0
0
0
0
0
0
0
0
0
0
0
4
12
12
12
12
12
12
12
12
12
12
12
12
12
12
12
12
12
12
4
4
4
12
12
12
12
12
12
0
12
0
12
0
0
0
0
0
0
0
0
0
0
0
0
0
0
0
0
0
0
0
0
0
12
12
12
12
12
12
12
12
12
12
4
12
4
12
4
12
4
0
0
0
0
0
0
0
0
0
0
0
4
0
0
0
0
0
0
0
0
0
0
0
0
0
0
0
0
0
0
0
0
0
0
0
0
0
0
0
0
0
0
0
0
0
0
0
0
0
0
0
0
0
0
0
0
4
4
12
12
12
12
12
12
12
12
12
12
12
12
12
12
12
12
12
12
12
12
12
12
12
12
12
12
12
0
12
0
12
0
0
0
0
0
0
0
0
0
0
0
0
0
0
0
0
0
0
0
0
0
0
0
12
12
12
12
12
12
12
12
12
12
12
12
12
12
4
12
0
0
0
0
0
0
0
0
0
0
4
0
0
0
0
0
0
0
0
0
0
0
0
0
0
0
0
0
0
0
0
0
0
0
0
0
0
0
0
0
0
0
0
0
0
0
0
0
0
0
0
0
0
0
4
12
12
12
12
12
12
12
12
12
12
12
12
12
12
12
12
12
12
12
12
12
12
12
12
12
12
12
12
12
0
12
0
0
12
0
12
0
0
0
0
0
0
0
0
0
0
0
0
0
0
0
0
0
0
0
0
0
0
0
12
12
12
12
12
12
12
12
12
4
12
4
12
4
0
0
0
0
0
0
0
0
0
4
0
0
0
0
0
0
0
0
0
0
0
0
0
0
0
0
0
0
0
0
0
0
0
0
0
0
0
0
0
0
0
0
0
0
0
0
0
0
0
0
0
0
0
4
12
12
12
12
12
12
4
12
12
12
12
12
12
12
12
12
12
12
12
12
12
12
12
12
12
12
12
12
12
0
0
0
0
12
0
12
0
12
0
0
0
0
0
0
0
0
0
0
0
0
0
0
0
0
0
0
0
0
0
0
0
12
12
12
12
12
12
12
12
12
12
12
12
12
0
0
0
0
0
0
0
0
4
0
0
0
0
0
0
0
0
0
0
0
0
0
0
0
0
0
0
0
0
0
0
0
0
0
0
0
0
0
0
0
0
0
0
0
0
0
0
0
0
0
0
0
4
12
12
4
12
4
12
12
12
12
12
12
12
12
12
12
12
12
12
12
12
12
12
12
12
12
12
12
12
12
0
0
0
0
0
0
12
12
12
0
12
0
0
0
0
0
0
0
0
0
0
0
0
0
0
0
0
0
0
0
0
0
0
0
12
12
12
12
12
12
12
12
12
4
12
4
0
0
0
0
0
0
0
0
4
0
0
0
0
0
0
0
0
0
0
0
0
0
0
0
0
0
0
0
0
0
0
0
0
0
0
0
0
0
0
0
0
0
0
0
0
0
0
0
0
0
0
12
12
12
4
12
4
12
4
12
12
12
12
12
12
12
12
12
12
12
12
12
12
12
12
12
12
12
12
12
12
0
0
0
0
0
0
0
0
12
12
0
0
0
12
0
0
0
0
0
0
0
0
0
0
0
0
0
0
0
0
0
0
0
0
0
0
12
12
12
12
12
12
12
12
12
12
12
0
0
0
0
0
0
0
4
0
0
0
0
0
0
0
0
0
0
0
0
0
0
0
0
0
0
0
0
0
0
0
0
0
0
0
0
0
0
0
0
0
0
0
0
0
0
0
0
0
0
4
12
12
4
12
4
4
4
12
4
12
12
12
12
12
12
12
12
12
12
12
12
12
12
12
12
12
12
12
12
12
0
0
0
0
0
0
0
12
0
12
12
0
12
0
12
0
0
0
0
0
0
0
0
0
0
0
0
0
0
0
0
0
0
0
0
0
0
12
12
12
12
12
12
12
12
4
12
0
0
0
0
0
0
0
4
0
0
0
0
0
0
0
0
0
0
0
0
0
0
0
0
0
0
0
0
0
0
0
0
0
0
0
0
0
0
0
0
0
0
0
0
0
0
0
0
0
0
4
12
12
12
4
4
4
4
4
12
12
12
12
12
12
12
12
12
12
12
12
12
12
12
12
12
12
12
12
12
12
0
0
0
0
0
0
0
0
12
12
12
12
0
12
0
12
0
0
0
0
0
0
0
0
0
0
0
0
0
0
0
0
0
0
0
0
0
0
12
12
12
12
12
12
12
12
12
0
0
0
0
0
0
4
0
0
0
0
0
0
0
0
0
0
0
0
0
0
0
0
0
0
0
0
0
0
0
0
0
0
0
0
0
0
0
0
0
0
0
0
0
0
0
0
0
0
12
12
12
12
12
4
4
4
4
12
4
12
12
12
12
12
12
12
12
12
12
12
12
12
12
12
12
12
12
12
12
12
0
0
0
0
0
0
0
12
0
12
12
12
12
0
12
0
12
0
0
0
0
0
0
0
0
0
0
0
0
0
0
0
0
0
0
0
0
0
0
12
12
12
12
12
12
12
4
0
0
0
0
0
4
0
0
0
0
0
0
0
0
0
0
0
0
0
0
0
0
0
0
0
0
0
0
0
0
0
0
0
0
0
0
0
0
0
0
0
0
0
0
0
0
0
0
0
4
12
12
12
4
4
7
4
4
4
12
12
12
12
12
12
12
12
12
12
12
12
12
12
12
12
12
12
12
12
12
12
0
0
0
0
0
0
0
0
12
12
12
12
12
12
0
12
0
0
0
0
0
0
0
0
0
0
0
0
0
0
0
0
0
0
0
0
0
0
0
12
12
12
12
12
12
12
12
0
0
0
0
0
4
0
0
0
0
0
0
0
0
0
0
0
0
0
0
0
0
0
0
0
0
0
0
0
0
0
0
0
0
0
0
0
0
0
0
0
0
0
0
0
0
0
0
0
12
12
12
4
4
7
7
4
4
4
4
12
12
12
12
12
12
12
12
12
12
12
12
12
12
12
12
12
12
12
12
12
0
0
0
0
0
0
0
0
12
12
12
12
12
12
12
0
0
12
0
0
0
0
0
0
0
0
0
0
0
0
0
0
0
0
0
0
0
0
0
0
12
12
12
12
12
12
12
0
0
0
0
0
4
0
0
0
0
0
0
0
0
0
0
0
0
0
0
0
0
0
0
0
0
0
0
0
0
0
0
0
0
0
0
0
0
0
0
0
0
0
0
0
0
0
0
0
4
12
12
4
7
7
7
4
4
4
12
12
12
12
12
12
12
12
12
12
12
12
12
12
12
12
12
12
12
12
12
12
0
0
0
0
0
0
0
0
12
12
12
12
12
12
12
12
12
0
12
0
0
0
0
0
0
0
0
0
0
0
0
0
0
0
0
0
0
0
0
0
0
12
12
12
12
12
12
0
0
0
0
4
0
0
0
0
0
0
0
0
0
0
0
0
0
0
0
0
0
0
0
0
0
0
0
0
0
0
0
0
0
0
0
0
0
0
0
0
4
4
0
0
0
0
0
0
12
12
12
4
7
7
7
4
4
4
12
12
12
12
12
12
12
12
12
12
12
12
12
12
12
12
12
12
12
12
12
12
0
0
0
0
0
0
0
4
4
12
12
12
12
12
12
12
12
0
12
0
0
0
0
0
0
0
0
0
0
0
0
0
0
0
0
0
0
0
0
0
0
0
12
12
12
12
12
0
0
0
0
4
0
0
0
0
0
0
0
0
0
0
0
0
0
0
0
0
0
0
0
0
0
0
0
0
0
0
0
0
0
0
0
0
0
0
0
4
4
12
0
0
0
0
0
0
4
12
12
4
7
0
0
4
4
4
4
12
12
12
12
12
12
12
12
12
12
12
12
12
12
12
12
12
12
12
12
12
0
0
0
0
0
0
0
4
4
12
12
12
12
12
12
12
0
0
0
0
0
0
0
0
0
0
0
0
0
0
0
0
0
0
0
0
0
0
0
0
0
0
12
12
12
12
12
0
0
0
4
0
0
0
0
0
0
0
0
0
0
0
0
0
0
0
0
0
0
0
0
0
0
0
0
0
0
0
0
0
0
0
0
0
0
0
4
4
12
4
0
0
0
0
0
0
0
12
12
4
0
0
0
0
4
4
4
12
12
12
12
12
12
12
12
12
12
12
12
12
12
12
12
12
12
12
12
12
0
0
0
0
0
0
0
0
4
4
12
12
12
12
12
12
12
0
0
0
0
0
0
0
0
0
0
0
0
0
0
0
0
0
0
0
0
0
0
0
0
0
0
12
12
12
12
0
4
4
0
0
0
0
0
0
0
0
0
0
0
0
0
0
0
0
0
0
0
0
0
0
0
0
0
0
0
0
0
0
0
0
0
0
0
0
4
4
12
12
0
0
0
0
0
0
0
4
12
4
0
0
0
0
4
4
4
4
12
12
12
12
12
12
12
12
12
12
12
12
12
12
12
12
12
12
12
12
0
0
0
0
0
0
0
0
4
4
4
12
12
12
12
12
0
0
0
0
0
0
0
0
0
0
0
0
0
0
0
0
0
0
0
0
0
0
0
0
0
0
0
12
12
12
12
4
0
0
0
0
0
0
0
0
0
0
0
0
0
0
0
0
0
0
0
0
0
0
0
0
0
0
0
0
0
0
0
0
0
0
0
0
0
0
4
4
4
12
0
0
0
0
0
0
0
12
12
4
0
0
0
0
4
4
4
12
12
12
12
12
12
12
12
12
12
12
12
12
12
12
12
12
12
12
12
12
0
0
0
0
0
0
0
4
4
4
4
12
12
12
12
0
0
0
0
0
0
0
0
0
0
0
0
0
0
0
0
0
0
0
0
0
0
0
0
0
0
0
0
0
12
12
12
4
0
0
0
0
0
0
0
0
0
0
0
0
0
0
0
0
0
0
0
0
0
0
0
0
0
0
0
0
0
0
0
0
0
0
0
0
0
0
4
4
12
12
0
0
0
0
0
0
0
4
12
4
0
0
0
0
4
4
4
12
12
12
12
12
12
12
12
12
12
12
12
12
12
12
12
12
12
12
12
12
0
0
0
0
0
0
0
4
4
4
4
12
12
12
12
12
0
0
0
0
0
0
0
0
0
0
0
0
0
0
0
0
0
0
0
0
0
0
0
0
0
0
0
0
12
12
12
4
0
0
0
0
0
0
0
0
0
0
0
0
0
0
0
0
0
0
0
0
0
0
0
0
0
0
0
0
0
0
0
0
0
0
0
0
0
0
4
12
12
12
12
0
0
0
0
0
0
12
12
4
7
7
7
7
4
4
4
4
12
12
12
12
12
12
12
12
12
12
12
12
12
12
12
12
12
12
12
12
0
0
0
0
0
0
0
4
4
4
4
4
12
12
12
0
0
0
0
0
0
0
0
0
0
0
0
0
0
0
0
0
0
0
0
0
0
0
0
0
0
0
0
0
12
12
12
4
0
0
0
0
0
0
0
0
0
0
0
0
0
0
0
0
0
0
0
0
0
0
0
0
0
0
0
0
0
0
0
0
0
0
0
0
0
0
4
4
12
12
12
0
0
0
0
0
0
0
4
4
4
7
7
7
4
4
4
12
4
12
12
12
12
12
12
12
12
12
12
12
12
12
12
12
12
12
12
12
0
0
0
0
0
0
0
4
4
4
4
4
12
12
12
12
12
0
0
0
0
0
0
0
0
0
0
0
0
0
0
0
0
0
0
0
0
0
0
0
0
0
0
0
0
12
12
0
0
0
0
0
0
0
0
0
0
0
0
0
0
0
0
0
0
0
0
0
0
0
0
0
0
0
0
0
0
0
0
0
0
0
0
0
0
0
4
12
4
12
12
12
0
0
0
0
0
0
12
12
4
7
7
7
7
4
4
4
12
12
12
12
12
12
12
12
12
12
12
12
12
12
12
12
12
12
12
12
0
0
0
0
0
0
0
4
4
4
4
4
12
12
12
12
0
0
0
0
0
0
0
0
0
0
0
0
0
0
0
0
0
0
0
0
0
0
0
0
0
0
0
0
0
12
12
0
0
0
0
0
0
0
0
0
0
0
0
0
0
0
0
0
0
0
0
0
0
0
0
0
0
0
0
0
0
0
0
0
0
0
0
0
0
0
4
4
12
12
12
12
12
0
0
0
0
0
4
12
4
4
4
7
7
4
4
12
4
12
12
12
12
12
12
12
12
12
12
12
12
12
12
12
12
12
12
12
0
0
0
0
0
0
0
4
4
4
4
4
12
12
12
12
0
0
0
0
0
0
0
0
0
0
0
0
0
0
0
0
0
0
0
0
0
0
0
0
0
0
0
0
0
12
12
0
0
0
0
0
0
0
0
0
0
0
0
0
0
0
0
0
0
0
0
0
0
0
0
0
0
0
0
0
0
0
0
0
0
0
0
0
0
0
4
12
12
12
12
12
12
0
0
0
0
0
0
4
4
4
4
4
4
4
4
4
12
12
12
12
12
12
12
12
12
12
12
12
12
12
12
12
12
12
12
12
0
0
0
0
0
0
0
12
4
4
4
4
4
12
12
0
12
0
0
0
0
0
0
0
0
0
0
0
0
0
0
0
0
0
0
0
0
0
0
0
0
0
0
0
0
12
4
0
0
0
0
0
0
0
0
0
0
0
0
0
0
0
0
0
0
0
0
0
0
0
0
0
0
0
0
0
0
0
0
0
0
0
0
0
0
0
4
4
12
12
12
12
12
12
0
0
0
0
0
0
12
12
4
4
4
4
4
4
12
12
12
12
12
12
12
12
12
12
12
12
12
12
12
12
12
12
12
12
0
0
0
0
0
0
0
4
4
4
4
4
4
12
12
12
0
0
0
0
0
0
0
0
0
0
0
0
0
0
0
0
0
0
0
0
0
0
0
0
0
0
0
0
0
12
12
0
0
0
0
0
0
0
0
0
0
0
0
0
0
0
0
0
0
0
0
0
0
0
0
0
0
0
0
0
0
0
0
0
0
0
0
0
0
0
4
4
4
12
12
12
12
12
0
0
0
0
0
0
4
12
12
12
4
4
12
12
12
12
12
12
12
12
12
12
12
12
12
12
12
12
12
12
12
12
12
12
12
0
0
0
0
0
0
12
4
4
4
4
4
12
12
12
12
0
0
0
0
0
0
0
0
0
0
0
0
0
0
0
0
0
0
0
0
0
0
0
0
0
0
0
0
4
12
0
0
0
0
0
0
0
0
0
0
0
0
0
0
0
0
0
0
0
0
0
0
0
0
0
0
0
0
0
0
0
0
0
0
0
0
0
0
0
4
4
12
4
12
12
12
12
0
0
0
0
0
0
0
12
12
12
12
12
12
12
12
12
12
12
12
12
12
12
12
12
12
12
12
12
12
12
12
12
12
12
12
0
0
0
0
0
0
4
4
4
4
4
4
12
12
12
0
0
0
0
0
0
0
0
0
0
0
0
0
0
0
0
0
0
0
0
0
0
0
0
0
0
0
0
0
12
12
0
0
0
0
0
0
0
0
0
0
0
0
0
0
0
0
0
0
0
0
0
0
0
0
0
0
0
0
0
0
0
0
0
0
0
0
0
0
0
4
4
4
12
12
12
12
12
12
0
0
0
0
0
0
4
12
12
12
12
12
12
12
12
12
12
12
12
12
12
12
12
12
12
12
12
12
12
12
12
12
12
12
0
0
0
0
0
0
4
12
4
4
4
4
12
12
0
12
0
0
0
0
0
0
0
0
0
0
0
0
0
0
0
0
0
0
0
0
0
0
0
0
0
0
0
0
12
4
0
0
0
0
0
0
0
0
0
0
0
0
0
0
0
0
0
0
0
0
0
0
0
0
0
0
0
0
0
0
0
0
0
0
0
0
0
0
0
4
4
12
4
12
12
12
12
12
12
12
0
0
0
0
4
12
12
12
12
12
12
12
12
12
12
12
12
12
12
12
12
12
12
12
12
12
12
12
12
12
12
12
4
0
0
0
0
0
12
4
4
4
4
4
4
12
12
0
12
0
0
0
0
0
0
0
0
0
0
0
0
0
0
0
0
0
0
0
0
0
0
0
0
0
0
0
12
12
0
0
0
0
0
0
0
0
0
0
0
0
0
0
0
0
0
0
0
0
0
0
0
0
0
0
0
0
0
0
0
0
0
0
0
0
0
0
0
4
4
4
12
12
12
12
12
12
12
12
12
12
12
12
12
12
12
12
12
12
12
12
12
12
12
12
12
12
12
12
12
12
12
12
12
12
12
12
12
12
12
12
4
0
0
0
0
0
0
12
4
4
4
4
4
12
12
12
0
0
0
0
0
0
0
0
0
0
0
0
0
0
0
0
0
0
0
0
0
0
0
0
0
0
0
0
4
12
0
0
0
0
0
0
0
0
0
0
0
0
0
0
0
0
0
0
0
0
0
0
0
0
0
0
0
0
0
0
0
0
0
0
0
0
0
0
0
4
4
12
12
12
12
12
12
12
12
12
12
12
12
12
12
12
12
12
12
12
12
12
12
12
12
12
12
12
12
12
12
12
12
12
12
12
12
12
12
12
12
4
4
0
0
0
0
0
0
0
0
4
4
4
4
12
12
0
12
0
0
0
0
0
0
0
0
0
0
0
0
0
0
0
0
0
0
0
0
0
0
0
0
0
0
0
12
4
0
0
0
0
0
0
0
0
0
0
0
0
0
0
0
0
0
0
0
0
0
0
0
0
0
0
0
0
0
0
0
0
0
0
0
0
0
0
0
4
4
4
4
12
12
12
12
12
12
12
12
12
12
12
12
12
12
12
12
12
12
12
12
12
12
12
12
12
12
12
12
12
12
12
12
12
12
12
12
12
4
4
4
0
0
0
0
0
0
0
0
0
4
4
4
12
12
12
0
0
0
0
0
0
0
0
0
0
0
0
0
0
0
0
0
0
0
0
0
0
0
0
0
0
0
0
4
12
0
0
0
0
0
0
0
0
0
0
0
0
0
0
0
0
0
0
0
0
0
0
0
0
0
0
0
0
0
0
0
0
0
0
0
0
0
0
0
4
4
4
12
4
12
12
12
12
12
12
12
12
12
12
12
12
12
12
12
12
12
12
12
12
12
12
12
12
12
12
12
12
12
12
12
12
12
12
12
12
4
4
4
0
0
0
0
0
0
0
0
0
4
4
4
4
12
12
0
12
0
0
0
0
0
0
0
0
0
0
0
0
0
0
0
0
0
0
0
0
0
0
0
0
0
0
4
4
0
0
0
0
0
0
0
0
0
0
0
0
0
0
0
0
0
0
0
0
0
0
0
0
0
0
0
0
0
0
0
0
0
0
0
0
0
0
0
4
4
4
4
12
12
12
12
12
12
12
12
12
12
12
12
12
12
12
12
12
12
12
12
12
12
12
4
4
4
4
4
4
4
4
4
4
4
4
4
4
4
4
4
4
0
0
0
0
0
0
0
0
4
4
4
4
12
12
12
0
0
0
0
0
0
0
0
0
0
0
0
0
0
0
0
0
0
0
0
0
0
0
0
0
0
0
4
4
0
0
0
0
0
0
0
0
0
0
0
0
0
0
0
0
0
0
0
0
0
0
0
0
0
0
0
0
0
0
0
0
0
0
0
0
0
0
0
4
4
4
12
12
12
12
12
12
12
12
12
12
12
12
12
12
12
12
12
12
12
12
12
4
4
4
4
4
4
4
4
4
4
4
4
4
4
4
4
4
4
4
4
4
0
0
0
0
0
0
0
0
4
4
4
4
12
12
0
12
12
0
0
0
0
0
0
0
0
0
0
0
0
0
0
0
0
0
0
0
0
0
0
0
0
0
4
4
0
0
0
0
0
0
0
0
0
0
0
0
0
0
0
0
0
0
0
0
0
0
0
0
0
0
0
0
0
0
0
0
0
0
0
0
0
0
0
4
4
4
4
12
12
12
12
12
12
12
12
12
12
12
12
12
12
12
12
12
12
4
4
4
4
4
4
4
4
4
4
4
4
4
4
4
4
4
4
4
4
4
4
4
0
0
0
0
0
0
0
0
0
4
4
4
12
12
12
12
0
12
12
0
0
0
0
0
0
0
0
0
0
0
0
0
0
0
0
0
0
0
0
0
0
4
4
4
0
0
0
0
0
0
0
0
0
0
0
0
0
0
0
0
0
0
0
0
0
0
0
0
0
0
0
0
0
0
0
0
0
0
0
0
0
0
4
4
4
4
12
4
12
12
12
12
12
12
12
12
12
12
12
12
12
12
12
12
12
12
12
12
12
12
12
12
12
4
4
4
4
4
4
4
4
4
4
4
4
4
4
4
4
0
0
0
0
0
0
0
0
4
4
4
12
12
12
12
12
12
0
12
0
12
0
0
0
0
0
0
0
0
0
0
0
0
0
0
0
0
0
0
0
4
4
4
0
0
0
0
0
0
0
0
0
0
0
0
0
0
0
0
0
0
0
0
0
0
0
0
0
0
0
0
0
0
0
0
0
0
0
0
0
0
4
4
4
12
4
12
12
12
12
12
12
12
12
12
12
12
12
12
12
12
12
12
12
12
12
12
12
12
12
12
12
12
12
12
12
12
12
12
4
4
4
4
4
4
4
4
4
0
0
0
0
0
0
0
0
4
4
4
12
12
12
12
12
12
12
0
12
0
0
0
0
0
0
0
0
0
0
0
0
0
0
0
0
0
0
0
0
4
4
4
0
0
0
0
0
0
0
0
0
0
0
0
0
0
0
0
0
0
0
0
0
0
0
0
0
0
0
0
0
0
0
0
0
0
0
0
0
0
4
4
12
4
12
12
12
12
12
12
12
12
12
12
12
12
12
12
12
12
12
12
12
12
12
12
12
12
12
12
12
12
12
12
12
12
12
12
12
12
12
12
4
4
4
4
12
12
0
0
0
0
0
0
0
0
4
4
12
12
12
12
12
12
12
12
0
12
0
0
0
0
0
0
0
0
0
0
0
0
0
0
0
0
0
0
4
4
4
4
0
0
0
0
0
0
0
0
0
0
0
0
0
0
0
0
0
0
0
0
0
0
0
0
0
0
0
0
0
0
0
0
0
0
0
0
0
4
4
4
12
12
4
12
12
12
12
12
12
12
12
12
12
0
0
0
4
12
12
12
12
12
12
12
12
12
12
12
12
12
12
12
12
12
12
12
12
12
12
12
12
12
4
12
12
12
12
0
0
0
0
0
0
0
4
4
4
12
12
12
12
12
12
12
12
0
0
0
0
0
0
0
0
0
0
0
0
0
0
0
0
0
0
4
4
4
4
4
0
0
0
0
0
0
0
0
0
0
0
0
0
0
0
0
0
0
0
0
0
0
0
0
0
0
0
0
0
0
0
0
0
0
0
0
0
4
4
4
12
4
12
12
12
12
12
12
12
12
12
12
0
0
0
0
12
4
12
12
4
12
4
12
12
12
12
12
12
12
12
12
12
12
12
12
12
12
12
12
12
12
12
12
12
12
12
0
0
0
0
0
0
0
4
4
4
12
12
12
12
12
12
12
0
12
0
0
0
0
0
0
0
0
0
0
0
0
0
0
0
0
4
4
4
4
4
4
0
0
0
0
0
0
0
0
0
0
0
0
0
0
0
0
0
0
0
0
0
0
0
0
0
0
0
0
0
0
0
0
0
0
0
0
0
4
4
12
4
12
12
12
12
12
12
12
12
12
12
0
0
0
0
0
4
12
12
4
12
4
12
4
12
12
12
12
12
12
12
12
12
12
12
12
12
12
12
12
12
12
12
12
12
12
12
12
0
0
0
0
0
0
0
4
4
12
12
12
12
12
12
12
12
0
0
0
0
0
0
0
0
0
0
0
0
0
0
0
4
4
4
4
4
4
4
4
0
0
0
0
0
0
0
0
0
0
0
0
0
0
0
0
0
0
0
0
0
0
0
0
0
0
0
0
0
0
0
0
0
0
0
0
0
4
4
12
12
12
12
12
12
12
12
12
12
12
12
0
0
0
0
0
12
4
12
4
4
4
4
4
12
4
12
12
12
12
12
12
12
12
12
12
12
12
12
12
12
12
12
12
12
12
12
12
12
0
0
0
0
0
0
0
4
12
12
12
12
12
12
0
0
0
0
0
0
0
0
0
0
0
0
0
0
0
0
0
4
4
4
4
4
4
4
4
0
0
0
0
0
0
0
0
0
0
0
0
0
0
0
0
0
0
0
0
0
0
0
0
0
0
0
0
0
0
0
0
0
0
0
0
4
4
12
4
12
12
12
12
12
12
12
12
12
12
12
0
0
0
0
0
4
12
4
4
4
4
4
4
4
12
12
12
12
12
12
12
12
12
12
12
12
12
12
12
12
12
12
12
12
12
12
12
12
0
0
0
0
0
0
0
0
12
12
12
12
12
0
12
0
0
0
0
0
0
0
0
0
0
0
0
0
0
0
4
4
4
4
4
4
4
4
4
0
0
0
0
0
0
0
0
0
0
0
0
0
0
0
0
0
0
0
0
0
0
0
0
0
0
0
0
0
0
0
0
0
0
0
4
4
12
12
4
12
12
12
12
12
12
12
12
12
12
12
0
0
0
0
0
12
4
4
4
7
7
4
4
4
12
4
12
12
12
12
12
12
12
12
12
12
12
12
12
12
12
12
12
12
12
12
12
12
12
0
0
0
0
0
0
0
12
0
12
12
12
12
0
0
0
0
0
0
0
0
0
0
0
0
0
0
0
5
4
4
4
4
4
4
4
4
4
0
0
0
0
0
0
0
0
0
0
0
0
0
0
0
0
0
0
0
0
0
0
0
0
0
0
0
0
0
0
0
0
0
0
0
4
4
12
4
12
12
12
12
12
12
12
12
12
12
12
12
0
0
0
0
4
12
12
4
7
7
7
4
4
4
4
12
12
12
12
12
12
12
12
12
12
12
12
12
12
12
12
12
12
12
12
12
12
12
12
0
0
0
0
0
0
0
0
12
0
12
12
0
0
0
0
0
0
0
0
0
0
0
0
0
0
0
5
5
5
4
4
4
4
4
4
4
4
0
0
0
0
0
0
0
0
0
0
0
0
0
0
0
0
0
0
0
0
0
0
0
0
0
0
0
0
0
0
0
0
0
0
4
4
12
4
12
12
12
12
12
12
12
12
12
12
12
12
0
0
0
0
0
12
4
12
4
7
7
7
7
4
4
4
4
12
12
12
12
12
12
12
12
12
12
12
12
12
12
12
12
12
12
12
12
12
12
12
12
0
0
0
0
0
0
0
0
12
12
0
12
0
0
0
0
0
0
0
0
0
0
0
0
0
5
5
5
5
5
5
5
4
4
4
5
5
0
0
0
0
0
0
0
0
0
0
0
0
0
0
0
0
0
0
0
0
0
0
0
0
0
0
0
0
0
0
0
0
0
0
4
4
12
4
12
12
12
12
12
12
12
12
12
12
12
12
0
0
0
0
0
4
12
12
4
7
7
7
7
4
4
4
12
4
12
12
12
12
12
12
12
12
12
12
12
12
12
12
12
12
12
12
12
12
12
12
12
0
0
0
0
0
0
0
0
0
12
12
0
12
0
0
0
0
0
0
0
0
0
0
0
5
5
5
5
5
5
5
5
5
5
5
5
5
4
0
0
0
0
0
0
0
0
0
0
0
0
0
0
0
0
0
0
0
0
0
0
0
0
0
0
0
0
0
0
0
0
4
4
12
4
12
12
12
12
12
12
12
12
12
12
12
12
12
0
0
0
0
0
12
4
12
4
7
0
0
0
4
4
4
4
12
4
12
12
12
12
12
12
12
12
12
12
12
12
12
12
12
12
12
12
12
12
12
12
0
0
0
0
0
0
0
0
12
12
0
12
0
0
0
0
0
0
0
0
0
0
0
0
5
13
5
5
5
5
5
5
5
5
5
5
5
4
0
0
0
0
0
0
0
0
0
0
0
0
0
0
0
0
0
0
0
0
0
0
0
0
0
0
0
0
0
0
0
4
4
4
12
4
12
12
12
12
12
12
12
12
12
12
12
12
12
0
0
0
0
0
4
12
12
4
0
0
0
0
4
4
4
4
4
12
12
12
12
12
12
12
12
12
12
12
12
12
12
12
12
12
12
12
12
12
12
12
12
0
0
0
0
0
0
0
0
12
12
0
0
0
0
0
0
0
0
0
0
0
0
13
5
13
13
13
13
13
5
5
5
5
5
5
5
0
4
0
0
0
0
0
0
0
0
0
0
0
0
0
0
0
0
0
0
0
0
0
0
0
0
0
0
0
0
0
4
4
4
12
4
12
12
12
12
12
12
12
12
12
12
12
12
12
12
0
0
0
0
0
0
12
12
4
0
0
0
0
0
4
4
4
12
4
12
12
12
12
12
12
12
12
12
12
12
12
12
12
12
12
12
12
12
12
12
12
12
12
0
0
0
0
0
12
12
12
0
12
0
0
0
0
0
0
0
0
0
0
0
13
13
13
5
13
13
13
13
13
13
13
13
13
13
0
0
4
0
0
0
0
0
0
0
0
0
0
0
0
0
0
0
0
0
0
0
0
0
0
0
0
0
0
0
4
4
4
4
4
12
12
12
12
12
12
12
12
12
12
12
12
12
12
12
0
0
0
0
0
0
4
12
4
4
0
0
0
0
4
4
4
4
12
12
12
12
12
12
12
12
12
12
12
12
12
12
12
12
12
12
12
12
12
12
12
12
12
12
0
12
0
12
0
12
0
12
0
0
0
0
0
0
0
0
0
0
0
13
13
13
13
13
13
13
5
13
13
13
5
13
13
5
0
0
4
0
0
0
0
0
0
0
0
0
0
0
0
0
0
0
0
0
0
0
0
0
0
0
0
0
0
0
0
4
4
4
12
4
12
12
12
12
12
12
12
12
12
12
12
12
12
12
0
0
0
0
0
0
12
4
12
4
0
0
0
0
4
4
4
12
4
12
12
12
12
12
12
12
12
12
12
12
12
12
12
12
12
12
12
12
12
12
12
12
4
12
12
12
12
12
12
0
12
0
0
0
0
0
0
0
0
0
0
0
0
12
13
13
13
13
13
13
13
13
13
13
13
13
13
13
0
0
0
4
0
0
0
0
0
0
0
0
0
0
0
0
0
0
0
0
0
0
0
0
0
0
0
0
0
0
0
4
4
4
4
12
12
12
12
12
12
12
12
12
12
12
12
12
12
12
0
0
0
0
0
0
4
12
12
4
4
7
7
7
7
4
4
4
12
12
12
12
12
12
12
12
12
12
12
12
12
12
12
12
12
12
12
12
12
12
4
12
12
12
4
12
4
12
12
12
0
0
0
0
0
0
0
0
0
0
0
0
14
14
14
13
13
13
13
13
13
13
13
13
13
13
13
13
0
0
0
4
0
0
0
0
0
0
0
0
0
0
0
0
0
0
0
0
0
0
0
0
0
0
0
0
0
0
0
4
4
4
12
4
12
12
12
12
12
12
12
12
12
12
12
12
12
12
0
0
0
0
0
0
12
4
12
12
4
4
7
7
7
4
4
12
4
12
12
12
12
12
12
12
12
12
12
12
12
12
12
12
12
12
12
12
4
12
12
12
12
4
12
4
12
12
12
0
0
0
0
0
0
0
0
0
0
0
0
14
14
14
14
14
13
13
5
13
13
13
13
13
13
13
13
13
0
0
0
0
4
0
0
0
0
0
0
0
0
0
0
0
0
0
0
0
0
0
0
0
0
0
0
0
0
0
0
4
4
4
4
12
12
12
12
12
12
12
12
12
12
12
12
12
12
12
12
0
0
0
0
0
0
4
12
12
12
4
7
7
7
4
4
4
12
4
12
12
12
12
12
12
12
12
12
12
12
12
12
12
12
4
12
12
12
12
4
4
4
12
4
4
12
4
0
0
0
0
0
0
0
0
0
0
0
0
0
14
14
14
14
14
14
13
13
13
5
5
13
13
13
13
13
13
0
0
0
0
4
0
0
0
0
0
0
0
0
0
0
0
0
0
0
0
0
0
0
0
0
0
0
0
0
0
0
0
4
4
12
4
12
12
12
12
12
12
12
12
12
12
12
12
12
12
12
0
0
0
0
0
0
12
4
12
12
4
4
7
4
4
4
12
4
12
12
12
12
12
12
12
12
12
12
12
12
12
12
4
12
12
12
4
4
4
4
4
4
4
4
12
12
0
0
0
0
0
0
0
0
0
0
0
0
0
14
14
14
12
14
14
14
13
13
13
13
5
5
13
13
13
13
13
0
0
0
0
4
0
0
0
0
0
0
0
0
0
0
0
0
0
0
0
0
0
0
0
0
0
0
0
0
0
0
0
0
4
4
12
12
12
12
12
12
12
12
12
12
12
12
12
12
12
12
0
0
0
0
0
0
0
4
12
4
12
4
7
4
4
12
4
12
12
4
12
12
12
12
12
12
12
12
12
12
12
12
12
12
12
4
4
4
4
12
4
12
4
12
4
0
0
0
0
0
0
0
0
0
0
0
0
0
14
12
14
14
14
14
14
14
13
13
13
13
13
13
5
13
13
13
5
0
0
0
0
4
0
0
0
0
0
0
0
0
0
0
0
0
0
0
0
0
0
0
0
0
0
0
0
0
0
0
0
0
4
4
4
4
12
12
12
12
12
12
12
12
12
12
12
12
12
12
12
0
0
0
0
0
0
12
4
12
12
4
4
4
4
4
12
12
4
12
12
4
12
12
12
12
12
12
12
12
12
4
12
12
4
4
4
4
12
4
12
4
12
0
0
0
0
0
0
0
0
0
0
0
0
0
0
14
14
14
14
14
14
14
14
14
14
13
13
13
13
13
5
5
5
5
5
0
0
0
0
4
0
0
0
0
0
0
0
0
0
0
0
0
0
0
0
0
0
0
0
0
0
0
0
0
0
0
0
0
0
4
4
12
4
4
12
12
12
12
12
12
12
12
12
12
12
12
12
0
0
0
0
0
0
0
4
4
4
12
4
4
12
12
12
12
4
12
4
12
4
12
12
4
12
12
4
12
12
12
12
12
12
12
4
12
4
12
12
12
0
0
0
0
0
0
0
0
0
0
0
0
0
0
14
14
14
12
14
14
14
14
14
14
14
14
13
13
13
13
13
13
5
13
13
0
0
0
0
4
0
0
0
0
0
0
0
0
0
0
0
0
0
0
0
0
0
0
0
0
0
0
0
0
0
0
0
0
0
0
4
4
4
12
4
4
12
12
12
4
12
12
12
4
12
12
12
12
0
0
0
0
0
0
0
12
4
4
12
12
12
4
12
12
12
12
12
12
12
12
12
12
12
12
12
12
4
12
4
12
4
12
12
12
12
12
0
0
0
0
0
0
0
0
0
0
0
0
0
0
0
14
12
14
14
14
14
14
12
14
14
14
14
14
13
13
13
13
13
13
13
13
5
0
0
0
0
4
0
0
0
0
0
0
0
0
0
0
0
0
0
0
0
0
0
0
0
0
0
0
0
0
0
0
0
0
0
0
0
4
4
4
12
12
4
12
12
12
12
12
12
12
12
12
12
4
0
0
0
0
0
0
0
0
4
12
12
4
12
4
12
4
12
4
12
12
4
12
4
12
4
12
4
12
4
4
4
0
0
0
0
0
0
0
0
0
0
0
0
0
0
0
0
0
0
0
0
0
12
14
14
14
14
12
14
14
14
14
14
14
14
14
13
13
13
13
13
13
13
13
13
0
0
0
0
4
0
0
0
0
0
0
0
0
0
0
0
0
0
0
0
0
0
0
0
0
0
0
0
0
0
0
0
0
0
0
0
0
4
4
4
4
12
4
12
4
12
4
12
4
12
4
12
4
12
0
0
0
0
0
0
0
0
0
0
4
4
4
4
4
4
4
4
12
4
4
4
4
4
4
4
4
4
4
4
0
0
0
0
0
0
0
0
0
0
0
0
0
0
0
0
0
0
0
0
0
14
14
12
14
14
14
14
14
14
14
14
14
14
14
13
13
13
13
13
13
13
13
13
0
0
0
0
4
0
0
0
0
0
0
0
0
0
0
0
0
0
0
0
0
0
0
0
0
0
0
0
0
0
0
0
0
0
0
0
0
0
4
4
4
4
4
4
4
4
4
4
4
4
4
4
4
4
4
0
0
0
0
0
0
0
0
0
0
0
0
0
4
4
4
4
4
4
4
4
4
4
4
4
0
0
0
0
0
0
0
0
0
0
0
0
0
0
0
0
0
0
0
0
0
0
0
0
14
12
14
14
14
14
12
14
14
14
14
14
14
14
14
14
13
13
13
13
13
13
13
13
0
0
0
0
4
0
0
0
0
0
0
0
0
0
0
0
0
0
0
0
0
0
0
0
0
0
0
0
0
0
0
0
0
0
0
0
0
0
0
0
0
4
4
4
4
4
4
4
4
4
4
4
4
4
4
4
0
0
0
0
0
0
0
0
0
0
0
0
0
0
0
4
4
4
4
4
4
4
0
0
0
0
0
0
0
0
0
0
0
0
0
0
0
0
0
0
0
0
0
0
0
0
0
12
14
14
14
12
14
14
14
14
14
12
14
14
14
14
14
14
13
13
13
13
13
13
13
13
0
0
0
0
0
4
0
0
0
0
0
0
0
0
0
0
0
0
0
0
0
0
0
0
0
0
0
0
0
0
0
0
0
0
0
0
0
0
0
0
0
0
0
4
4
4
4
4
4
4
4
4
4
4
4
4
4
0
0
0
0
0
0
0
0
0
0
0
0
0
0
4
4
0
0
0
0
0
0
0
0
0
0
0
0
0
0
0
0
0
0
0
0
0
0
0
0
0
14
12
12
14
12
14
14
12
14
14
14
14
12
14
14
14
14
14
14
14
14
14
13
13
13
13
13
13
13
13
0
0
0
0
0
4
0
0
0
0
0
0
0
0
0
0
0
0
0
0
0
0
0
0
0
0
0
0
0
0
0
0
0
0
0
0
0
0
0
0
0
0
0
0
0
0
0
0
0
0
0
0
0
0
0
0
0
0
0
0
0
0
0
0
0
0
0
0
0
0
0
0
0
0
0
0
0
0
0
0
0
0
0
0
0
0
0
0
0
0
0
0
0
0
0
0
14
12
12
12
14
12
14
12
14
14
14
12
14
14
14
14
14
14
14
14
14
14
14
14
13
13
13
13
13
13
13
13
0
0
0
0
0
4
0
0
0
0
0
0
0
0
0
0
0
0
0
0
0
0
0
0
0
0
0
0
0
0
0
0
0
0
0
0
0
0
0
0
0
0
0
0
0
0
0
0
0
0
0
0
0
0
0
0
0
0
0
0
0
0
0
0
0
0
0
0
0
0
0
0
0
0
0
0
0
0
0
0
0
0
0
0
0
0
0
0
0
0
0
0
12
14
12
12
12
12
14
12
12
14
12
14
14
12
14
14
14
14
12
14
14
14
14
14
14
14
14
14
13
13
13
13
13
13
13
13
0
0
0
0
0
4
0
0
0
0
0
0
0
0
0
0
0
0
0
0
0
0
0
0
0
0
0
0
0
0
0
0
0
0
0
0
0
0
0
0
0
0
0
0
0
0
0
0
0
0
0
0
0
0
0
0
0
0
0
0
0
0
0
0
0
0
0
0
0
0
0
0
0
0
0
0
0
0
0
0
0
0
0
0
0
0
0
0
12
12
14
12
12
12
12
12
14
12
12
12
14
12
14
12
14
14
14
12
14
14
14
14
14
12
14
14
14
14
14
14
13
13
13
13
13
13
13
13
0
0
0
0
0
0
4
0
0
0
0
0
0
0
0
0
0
0
0
0
0
0
0
0
0
0
0
0
0
0
0
0
0
0
0
0
0
0
0
0
0
0
0
0
0
0
0
0
0
0
0
0
0
0
0
0
0
0
0
0
0
0
0
0
0
0
0
0
0
0
0
0
0
0
0
0
0
0
0
0
0
0
0
0
0
0
0
0
0
12
12
12
12
14
12
12
12
12
14
12
12
14
12
14
14
12
14
14
14
14
12
14
14
14
14
14
14
14
14
14
13
13
13
13
13
13
13
13
0
0
0
0
0
0
0
4
0
0
0
0
0
0
0
0
0
0
0
0
0
0
0
0
0
0
0
0
0
0
0
0
0
0
0
0
0
0
0
0
0
0
0
0
0
0
0
0
0
0
0
0
0
0
0
0
0
0
0
0
0
0
0
0
0
0
0
0
0
0
0
0
0
0
0
0
0
0
0
0
0
0
0
0
0
0
0
0
0
0
12
12
12
12
12
12
14
12
12
12
14
12
14
12
14
14
14
12
14
14
14
14
14
14
14
14
14
14
14
14
14
13
13
13
13
13
13
13
0
0
0
0
0
0
0
0
4
0
0
0
0
0
0
0
0
0
0
0
0
0
0
0
0
0
0
0
0
0
0
0
0
0
0
0
0
0
0
0
0
0
0
0
0
0
0
0
0
0
0
0
0
0
0
0
0
0
0
0
0
0
0
0
0
0
0
0
0
0
0
0
0
0
0
0
0
0
0
0
0
0
0
0
0
0
0
0
0
0
12
12
12
14
12
12
12
12
14
12
12
14
12
14
14
12
14
14
14
14
12
14
14
14
14
14
14
14
14
14
14
13
13
13
13
13
13
13
0
0
0
0
0
0
0
0
0
4
0
0
0
0
0
0
0
0
0
0
0
0
0
0
0
0
0
0
0
0
0
0
0
0
0
0
0
0
0
0
0
0
0
0
0
0
0
0
0
0
0
0
0
0
0
0
0
0
0
0
0
0
0
0
0
0
0
0
0
0
0
0
0
0
0
0
0
0
0
0
0
12
12
12
12
0
0
0
0
0
0
12
12
12
12
12
14
12
12
12
14
12
14
12
14
14
14
12
14
14
14
14
14
12
14
14
14
14
14
14
14
13
13
13
13
13
13
13
0
0
0
0
0
0
0
0
0
4
0
0
0
0
0
0
0
0
0
0
0
0
0
0
0
0
0
0
0
0
0
0
0
0
0
0
0
0
0
0
0
0
0
0
0
0
0
0
0
0
0
0
0
0
0
0
0
0
0
0
0
0
0
0
0
0
0
0
0
0
0
0
0
0
0
0
0
0
0
12
12
12
12
12
12
12
12
0
0
0
12
12
12
14
12
12
12
12
14
12
12
14
12
14
14
12
14
14
14
14
12
14
14
14
14
14
14
14
14
14
14
13
13
13
13
13
13
13
0
0
0
0
0
0
0
0
0
0
4
0
0
0
0
0
0
0
0
0
0
0
0
0
0
0
0
0
0
0
0
0
0
0
0
0
0
0
0
0
0
0
0
0
0
0
0
0
0
0
0
0
0
0
0
0
0
0
0
0
0
0
0
0
0
0
0
0
0
0
0
0
0
0
0
0
0
0
12
12
12
12
12
12
12
12
12
12
12
0
12
12
12
12
12
12
14
12
12
12
14
12
14
12
14
14
14
12
14
14
14
14
14
14
14
14
14
14
14
14
14
13
13
13
13
13
13
13
0
0
0
0
0
0
0
0
0
0
4
0
0
0
0
0
0
0
0
0
0
0
0
0
0
0
0
0
0
0
0
0
0
0
0
0
0
0
0
0
0
0
0
0
0
0
0
0
0
0
0
0
0
0
0
0
0
0
0
0
0
0
0
0
0
0
0
0
0
0
0
0
0
0
0
0
0
12
12
12
12
12
12
12
12
12
12
12
12
12
12
12
12
14
12
12
12
12
14
12
12
14
12
14
14
12
14
14
14
14
12
14
14
14
14
14
14
14
14
14
14
14
13
13
13
13
13
13
0
0
0
0
0
0
0
0
0
0
0
4
0
0
0
0
0
0
0
0
0
0
0
0
0
0
0
0
0
0
0
0
0
0
0
0
0
0
0
0
0
0
0
0
0
0
0
0
0
0
0
0
0
0
0
0
0
0
0
0
0
0
0
0
0
0
0
0
0
0
0
0
0
0
0
0
12
12
12
12
12
12
12
12
12
12
12
12
12
12
14
12
12
12
12
12
14
12
12
12
14
12
14
12
14
14
14
12
14
14
14
14
14
12
14
14
14
14
14
14
14
14
13
13
13
13
13
13
0
0
0
0
0
0
0
0
0
0
0
0
4
0
0
0
0
0
0
0
0
0
0
0
0
0
0
0
0
0
0
0
0
0
0
0
0
0
0
0
0
0
0
0
0
0
0
0
0
0
0
0
0
0
0
0
0
0
0
0
0
0
0
0
0
0
0
0
0
0
0
0
0
0
0
0
12
12
12
12
12
12
12
12
12
12
12
12
12
12
12
12
12
14
12
12
12
12
14
12
12
14
12
14
14
12
14
14
14
14
12
14
14
14
14
14
14
14
14
14
14
14
13
13
13
13
13
13
0
0
0
0
0
0
0
0
0
0
0
0
0
4
0
0
0
0
0
0
0
0
0
0
0
0
0
0
0
0
0
0
0
0
0
0
0
0
0
0
0
0
0
0
0
0
0
0
0
0
0
0
0
0
0
0
0
0
0
0
0
0
0
0
0
0
0
0
0
0
0
0
0
0
0
12
12
12
12
12
12
12
12
12
12
12
12
12
12
12
12
12
12
12
12
12
14
12
12
12
14
12
14
12
14
14
14
12
14
14
14
14
14
14
14
14
14
14
14
14
14
14
14
13
13
13
13
13
0
0
0
0
0
0
0
0
0
0
0
0
0
0
4
4
4
4
4
4
4
4
0
0
0
0
0
0
0
0
0
0
0
0
0
0
0
0
0
0
0
0
0
0
0
0
0
0
0
0
0
0
0
0
0
0
0
0
0
0
0
0
0
0
0
0
0
0
0
0
0
0
0
0
0
12
12
12
12
12
12
12
12
12
12
12
12
12
12
12
12
12
12
14
12
12
12
12
14
12
12
14
12
14
14
12
14
14
14
14
12
14
14
14
14
14
14
14
14
14
14
14
14
13
13
13
13
13
0
0
0
0
0
0
0
0
0
0
0
0
0
0
0
0
0
4
0
0
0
0
4
4
4
4
0
0
0
0
0
0
0
0
0
0
0
0
0
0
0
0
0
0
0
0
0
0
0
0
0
0
0
0
0
0
0
0
0
0
0
0
0
0
0
0
0
0
0
0
0
0
0
0
0
12
12
12
12
12
12
12
12
12
12
12
12
12
12
12
14
12
12
12
12
12
14
12
12
12
14
12
14
12
14
14
14
12
14
14
14
14
14
12
14
14
14
14
14
14
14
14
14
13
13
13
13
13
0
0
0
0
0
0
0
0
0
0
0
0
0
0
0
0
0
0
0
0
4
0
0
0
4
4
0
0
0
0
0
0
0
0
0
0
0
0
0
0
0
0
0
0
0
0
0
0
0
0
0
0
0
0
0
0
0
0
0
0
0
0
0
0
0
0
0
0
0
0
0
0
0
0
12
12
12
12
12
12
12
12
12
12
12
12
12
12
12
12
12
12
12
14
12
12
12
12
14
12
12
14
12
14
14
12
14
14
14
14
12
14
14
14
14
14
14
14
14
14
14
14
14
14
13
13
13
13
0
0
0
0
0
0
0
0
0
0
0
0
0
0
0
0
0
4
0
0
0
0
4
0
0
4
4
0
0
0
0
0
0
0
0
0
0
0
0
0
0
0
0
0
0
0
0
0
0
0
0
0
0
0
0
0
0
0
0
0
0
0
0
0
0
0
0
0
0
0
0
0
0
0
12
12
12
12
12
12
12
12
12
12
12
12
12
12
12
12
12
12
12
12
12
12
14
12
12
12
14
12
14
12
14
14
14
12
14
14
14
14
14
14
14
14
14
14
14
14
14
14
14
14
13
13
13
13
0
0
0
0
0
0
0
0
0
0
0
0
0
0
4
0
0
0
0
0
4
0
0
0
4
0
4
4
0
0
0
0
0
0
0
0
0
0
0
0
0
0
0
0
0
0
0
0
0
0
0
0
0
0
0
0
0
0
0
0
0
0
0
0
0
0
0
0
0
0
0
0
0
12
12
12
12
12
12
12
12
12
12
12
12
12
12
12
12
12
12
12
12
14
12
12
12
12
14
12
12
14
12
14
14
12
14
14
14
14
12
14
14
14
14
14
14
14
14
14
14
14
14
14
14
13
13
13
0
0
0
0
0
0
0
0
0
0
0
0
0
0
0
0
0
4
0
0
0
0
4
0
0
4
0
4
4
4
0
0
0
0
0
0
0
0
0
0
0
0
0
0
0
0
0
0
0
0
0
0
0
0
0
0
0
0
0
0
0
0
0
0
0
0
0
0
0
0
0
0
0
12
12
12
12
12
12
12
12
12
12
12
12
12
12
12
12
12
14
12
12
12
12
12
14
12
12
12
14
12
14
12
14
14
14
12
14
14
14
14
14
12
14
14
14
14
14
14
14
14
14
14
14
14
13
13
0
0
0
0
0
0
0
0
0
0
0
0
0
0
0
0
0
0
0
0
4
0
0
0
4
0
4
0
4
4
4
4
4
4
4
4
4
4
0
0
0
0
0
0
0
0
0
0
0
0
0
0
0
0
0
0
0
0
0
0
0
0
0
0
0
0
0
0
0
0
0
0
0
12
12
12
12
12
12
12
12
12
12
12
12
12
12
12
12
12
12
12
12
14
12
12
12
12
14
12
12
14
12
14
14
12
14
14
14
14
12
14
14
14
14
14
14
14
14
14
14
14
14
14
14
14
14
13
0
0
0
0
0
0
0
0
0
0
0
0
0
0
0
0
0
4
0
0
0
0
4
0
0
4
0
4
4
0
4
4
4
4
0
4
4
4
4
4
0
0
0
0
0
0
0
0
0
0
0
0
0
0
0
4
0
0
0
0
0
0
0
0
0
0
0
0
0
0
0
0
12
12
12
12
12
12
12
12
12
12
12
12
12
12
12
12
12
12
12
12
12
12
12
12
14
12
12
12
14
12
14
12
14
14
14
12
14
14
14
14
14
14
14
14
14
14
14
14
14
14
14
14
14
14
14
14
0
0
0
0
0
0
0
0
0
0
0
0
0
0
4
0
0
0
0
0
4
0
0
0
4
0
4
0
4
4
4
0
4
4
4
4
4
4
4
4
4
4
4
4
4
0
0
0
0
0
0
0
4
4
4
4
12
0
0
0
0
0
0
0
0
0
0
0
0
0
0
12
12
12
12
12
12
12
12
12
12
12
12
12
12
12
12
12
12
12
12
12
12
14
12
12
12
12
14
12
12
14
12
14
14
12
14
14
14
14
12
14
14
14
14
14
14
14
14
14
14
14
14
14
14
14
14
14
0
0
0
0
0
0
0
0
0
0
0
0
0
0
0
0
0
4
0
0
0
0
4
0
0
4
0
4
4
0
4
4
4
4
0
4
4
4
4
4
4
4
4
4
4
4
4
4
4
4
4
4
4
4
12
4
4
4
12
4
12
0
0
0
0
0
0
0
0
12
12
12
12
12
12
12
12
12
12
12
12
12
12
12
12
12
12
12
12
12
14
12
12
12
12
12
14
12
12
12
14
12
14
12
14
14
14
12
14
14
14
14
14
12
14
14
14
14
14
14
14
14
14
14
14
14
14
14
0
0
0
0
0
0
0
0
0
0
0
0
0
0
0
0
0
0
0
0
4
0
0
0
4
0
4
0
4
4
4
0
4
4
4
4
4
0
4
4
4
4
4
4
4
4
4
4
4
4
4
12
4
4
4
4
12
4
4
12
4
12
12
4
12
12
12
12
4
12
12
12
12
12
12
12
12
12
12
12
12
12
12
12
12
12
12
12
12
12
12
12
12
14
12
12
12
12
14
12
12
14
12
14
14
12
14
14
14
14
12
14
14
14
14
14
14
14
14
14
14
14
14
14
14
14
14
14
0
0
0
0
0
0
0
0
0
0
0
0
0
0
0
0
0
4
0
0
0
0
4
0
0
4
0
4
4
0
4
4
4
4
0
4
4
4
4
4
4
4
4
4
4
4
4
4
12
4
4
4
4
4
12
4
4
4
12
4
12
4
12
12
12
4
12
12
12
12
12
4
12
12
12
12
12
12
12
12
12
12
12
12
12
12
12
12
12
12
12
12
12
12
12
12
14
12
12
12
14
12
14
12
14
14
14
12
14
14
14
14
14
14
14
14
14
14
14
14
14
14
14
14
14
14
14
14
0
0
0
0
0
0
0
0
0
0
0
0
0
0
4
0
0
0
0
0
4
0
0
0
4
0
4
0
4
4
4
0
4
4
4
4
4
4
4
4
4
4
4
4
4
4
4
4
4
4
4
12
4
4
4
4
12
4
4
12
4
12
12
4
12
12
12
12
4
12
12
12
12
12
12
12
12
12
12
12
12
12
12
12
12
12
12
12
12
12
12
12
12
14
12
12
12
12
14
12
12
14
12
14
14
12
14
14
14
14
12
14
14
14
14
14
14
14
14
14
14
14
14
14
14
14
14
14
0
0
0
0
0
0
0
0
0
0
0
0
0
0
0
0
0
4
0
0
0
0
4
0
0
4
0
4
4
0
4
4
4
4
0
4
4
4
4
4
4
4
4
4
4
4
4
4
4
4
4
4
4
4
12
4
4
4
12
4
12
4
12
12
12
4
12
12
12
12
12
12
12
12
12
12
12
12
12
12
12
12
12
12
12
12
12
12
12
12
14
12
12
12
12
12
14
12
12
12
14
12
14
12
14
14
14
12
14
14
14
14
14
12
14
14
14
14
14
14
14
14
14
14
14
14
14
14
0
0
0
0
0
0
0
0
0
0
0
0
0
0
0
0
0
0
0
0
4
0
0
0
4
0
4
0
4
4
4
0
4
4
4
4
4
0
4
4
4
4
4
4
4
4
4
4
4
4
4
12
4
4
4
4
12
4
4
12
4
12
12
4
12
12
12
12
4
12
12
12
12
12
12
12
12
12
12
12
12
12
12
12
12
12
12
12
12
12
12
12
12
14
12
12
12
12
14
12
12
14
12
14
14
12
14
14
14
14
12
14
14
14
14
14
14
14
14
14
14
14
14
14
14
14
14
14
0
0
0
0
0
0
0
0
0
0
0
0
0
0
0
0
0
4
0
0
0
0
4
0
0
4
0
4
4
0
4
4
4
4
0
4
4
4
4
4
4
4
4
4
4
4
4
4
12
4
4
4
4
4
12
4
4
4
12
4
12
4
12
12
12
4
12
12
12
12
12
4
12
12
12
12
12
12
12
12
12
12
12
12
12
12
12
12
12
12
12
12
12
12
12
12
14
12
12
12
14
12
14
12
14
14
14
12
14
14
14
14
14
14
14
14
14
14
14
14
14
14
14
14
14
14
14
14
0
0
0
0
0
0
0
0
0
0
0
0
0
0
4
0
0
0
0
0
4
0
0
0
4
0
4
0
4
4
4
0
4
4
4
4
4
4
4
4
4
4
4
4
4
4
4
4
4
4
4
12
4
4
4
4
12
4
4
12
4
12
12
4
12
12
12
12
4
12
12
12
12
12
12
12
12
12
12
12
12
12
12
12
12
12
12
12
12
12
12
12
12
14
12
12
12
12
14
12
12
14
12
14
14
12
14
14
14
14
12
14
14
14
14
14
14
14
14
14
14
14
14
14
14
14
14
14
0
0
0
0
0
0
0
0
0
0
0
0
0
0
0
0
0
4
0
0
0
0
4
0
0
4
0
4
4
0
4
4
4
4
0
4
4
4
4
4
4
4
4
4
4
4
4
4
4
4
4
4
4
4
12
4
4
4
12
4
12
4
12
12
12
4
12
12
12
12
12
12
12
12
12
12
12
12
12
12
12
12
12
12
12
12
12
12
12
12
14
12
12
12
12
12
14
12
12
12
14
12
14
12
14
14
14
12
14
14
14
14
14
12
14
14
14
14
14
14
14
14
14
14
14
14
14
14
0
0
0
0
0
0
0
0
0
0
0
0
0
0
0
0
0
0
0
0
4
0
0
0
4
0
4
0
4
4
4
0
4
4
4
4
4
0
4
4
4
4
4
4
4
4
4
4
4
4
4
12
4
4
4
4
12
4
4
12
4
12
12
4
12
12
12
12
4
12
12
12
12
12
12
12
12
12
12
12
12
12
12
12
12
12
12
12
12
12
12
12
12
14
12
12
12
12
14
12
12
14
12
14
14
12
14
14
14
14
12
14
14
14
14
14
14
14
14
14
14
14
14
14
14
14
14
14
